<?xml version="1.0" standalone="no"?>
<!DOCTYPE svg PUBLIC "-//W3C//DTD SVG 1.1//EN" "http://www.w3.org/Graphics/SVG/1.1/DTD/svg11.dtd" >
<!--
2013-9-30: Created.
-->
<svg>
<metadata>
Created by iconfont
</metadata>
<defs>

<font id="iconfont" horiz-adv-x="1024" >
  <font-face
    font-family="iconfont"
    font-weight="500"
    font-stretch="normal"
    units-per-em="1024"
    ascent="896"
    descent="-128"
  />
    <missing-glyph />
    
    <glyph glyph-name="x" unicode="x" horiz-adv-x="1001"
d="M281 543q-27 -1 -53 -1h-83q-18 0 -36.5 -6t-32.5 -18.5t-23 -32t-9 -45.5v-76h912v41q0 16 -0.5 30t-0.5 18q0 13 -5 29t-17 29.5t-31.5 22.5t-49.5 9h-133v-97h-438v97zM955 310v-52q0 -23 0.5 -52t0.5 -58t-10.5 -47.5t-26 -30t-33 -16t-31.5 -4.5q-14 -1 -29.5 -0.5
t-29.5 0.5h-32l-45 128h-439l-44 -128h-29h-34q-20 0 -45 1q-25 0 -41 9.5t-25.5 23t-13.5 29.5t-4 30v167h911zM163 247q-12 0 -21 -8.5t-9 -21.5t9 -21.5t21 -8.5q13 0 22 8.5t9 21.5t-9 21.5t-22 8.5zM316 123q-8 -26 -14 -48q-5 -19 -10.5 -37t-7.5 -25t-3 -15t1 -14.5
t9.5 -10.5t21.5 -4h37h67h81h80h64h36q23 0 34 12t2 38q-5 13 -9.5 30.5t-9.5 34.5q-5 19 -11 39h-368zM336 498v228q0 11 2.5 23t10 21.5t20.5 15.5t34 6h188q31 0 51.5 -14.5t20.5 -52.5v-227h-327z" />
    

    
    <glyph glyph-name="gouwucheman" unicode="&#58880;" d="M346.112 89.088q19.456 0 36.864-7.168t30.208-19.968 20.48-30.208 7.68-36.864-7.68-36.864-20.48-30.208-30.208-20.48-36.864-7.68q-20.48 0-37.888 7.68t-30.208 20.48-20.48 30.208-7.68 36.864 7.68 36.864 20.48 30.208 30.208 19.968 37.888 7.168zM772.096 87.04q19.456 0 37.376-7.168t30.72-19.968 20.48-30.208 7.68-36.864-7.68-36.864-20.48-30.208-30.72-20.48-37.376-7.68-36.864 7.68-30.208 20.48-20.48 30.208-7.68 36.864 7.68 36.864 20.48 30.208 30.208 19.968 36.864 7.168zM944.128 668.672q28.672 0 44.544-7.68t22.528-18.944 6.144-24.064-3.584-22.016-13.312-37.888-22.016-62.976-23.552-68.096-18.944-53.248q-13.312-40.96-33.28-56.832t-49.664-15.872l-35.84 0-65.536 0-86.016 0-96.256 0-253.952 0 14.336-92.16 517.12 0q49.152 0 49.152-41.984 0-20.48-9.728-35.328t-38.4-14.848l-49.152 0-94.208 0-118.784 0-119.808 0-99.328 0-55.296 0q-20.48 0-34.304 9.216t-23.04 24.064-14.848 32.256-8.704 32.768q-1.024 6.144-5.632 29.696t-11.264 58.88-14.848 78.848-16.384 87.552q-19.456 103.424-44.032 230.4l-76.8 0q-15.36 0-25.6 7.68t-16.896 18.432-9.216 23.04-2.56 22.528q0 20.48 13.824 33.792t37.376 13.312l21.504 0 21.504 0 25.6 0 34.816 0q20.48 0 32.768-6.144t19.456-15.36 10.24-19.456 5.12-17.408q2.048-8.192 4.096-23.04t4.096-30.208q3.072-18.432 6.144-38.912l700.416 0zM867.328 701.44l-374.784 0 135.168 135.168q23.552 23.552 51.712 24.064t51.712-23.04z"  horiz-adv-x="1024" />

    
    <glyph glyph-name="62" unicode="&#58955;" d="M512.015 681.839C265.109 681.839 65 515.067 65 309.313c0-102.92 50.085-196.079 131.034-263.495L171.981-81.84l107.097 73.164c67.853-34.559 147.593-54.537 232.937-54.537C758.891-63.213 959 103.588 959 309.313 959 515.067 758.891 681.839 512.015 681.839zM512.015-33.412c-77.66 0-153.53 17.736-219.418 51.293l-15.745 8.018-62.265-42.533 13.969 74.152-13.445 11.205c-77.587 64.607-120.31 150.053-120.31 240.59 0 188.977 187.158 342.726 417.214 342.726 230.041 0 417.185-153.749 417.185-342.726S742.056-33.412 512.015-33.412zM318.308 329.801c-16.458 0-29.801-13.314-29.801-29.802 0-16.457 13.343-29.8 29.801-29.8s29.801 13.344 29.801 29.8C348.109 316.487 334.766 329.801 318.308 329.801zM512.015 329.801c-16.458 0-29.801-13.314-29.801-29.802 0-16.457 13.344-29.8 29.801-29.8 16.457 0 29.801 13.344 29.801 29.8C541.815 316.487 528.472 329.801 512.015 329.801zM705.691 329.801c-16.457 0-29.801-13.314-29.801-29.802 0-16.457 13.344-29.8 29.801-29.8 16.458 0 29.802 13.344 29.802 29.8C735.493 316.487 722.149 329.801 705.691 329.801z"  horiz-adv-x="1024" />

    
    <glyph glyph-name="83" unicode="&#58991;" d="M170.833 403.833C113.484 403.833 67 357.349 67 300s46.484-103.833 103.833-103.833c57.349 0 103.833 46.484 103.833 103.833S228.182 403.833 170.833 403.833zM170.833 225.833c-40.893 0-74.167 33.274-74.167 74.167 0 40.894 33.274 74.167 74.167 74.167C211.727 374.167 245 340.894 245 300 245 259.107 211.727 225.833 170.833 225.833zM512 403.833c-57.349 0-103.833-46.484-103.833-103.833S454.651 196.167 512 196.167 615.833 242.651 615.833 300 569.349 403.833 512 403.833zM512 225.833c-40.893 0-74.167 33.274-74.167 74.167 0 40.894 33.274 74.167 74.167 74.167 40.893 0 74.166-33.273 74.166-74.167C586.166 259.107 552.893 225.833 512 225.833zM853.167 403.833c-57.35 0-103.834-46.484-103.834-103.833s46.484-103.833 103.834-103.833C910.516 196.167 957 242.651 957 300S910.516 403.833 853.167 403.833zM853.167 225.833C812.273 225.833 779 259.107 779 300c0 40.894 33.273 74.167 74.167 74.167 40.893 0 74.166-33.273 74.166-74.167C927.333 259.107 894.06 225.833 853.167 225.833z"  horiz-adv-x="1024" />

    
    <glyph glyph-name="msnui-trash" unicode="&#58904;" d="M226.871 45.435c0-59.382 47.87-109.989 106.91-109.989h356.406c59.055 0 106.909 50.607 106.909 109.989l71.28 575.97h-712.796l71.292-575.97zM624.25 509.689h69.953v-462.527h-69.953v462.527zM469.726 509.689h84.57v-462.527h-84.57v462.527zM329.82 509.689h69.953v-462.527h-69.953v462.527zM850.572 761.312h-231.664c0 0-15.957 69.953-35.647 69.953h-142.555c-19.675 0-35.645-69.953-35.645-69.953h-231.638c-29.534 0-53.462-25.813-53.462-55.498 0-29.698 0-56.218 0-56.218h784.103c0 0 0 26.521 0 56.218 0 29.684-23.972 55.498-53.492 55.498z"  horiz-adv-x="1024" />

    
    <glyph glyph-name="msnui-more" unicode="&#59001;" d="M169.002 489.682c-57.562 0-104.228-46.646-104.228-104.228 0-57.563 46.666-104.209 104.228-104.209s104.228 46.646 104.228 104.209c0 57.582-46.667 104.228-104.228 104.228zM501.431 489.682c-57.562 0-104.228-46.646-104.228-104.228 0-57.563 46.667-104.209 104.228-104.209s104.228 46.646 104.228 104.209c0 57.582-46.666 104.228-104.228 104.228zM854.638 489.682c-57.563 0-104.23-46.646-104.23-104.228 0-57.563 46.667-104.209 104.23-104.209s104.228 46.646 104.228 104.209c-0.001 57.582-46.666 104.228-104.228 104.228z"  horiz-adv-x="1024" />

    
    <glyph glyph-name="msnui-help" unicode="&#59253;" d="M518.993-68.83c-54.163 0-98.093 43.929-98.093 98.107 0 54.156 43.93 98.068 98.093 98.068 54.177 0 98.094-43.913 98.094-98.068 0-54.181-43.915-98.107-98.094-98.107zM596.117 221.105v-17.644c0 0-147.071 0-161.702 0v17.644c0 49.931 7.284 113.984 65.257 169.67 57.977 55.693 130.422 101.7 130.422 171.27 0 76.916-53.378 117.599-120.681 117.599-112.155 0-119.479-116.307-122.242-141.915h-157.279c4.189 121.279 55.453 290.914 280.459 290.914 194.996 0 282.662-130.591 282.662-253.049 0-194.918-196.896-228.778-196.896-354.492z"  horiz-adv-x="1024" />

    
    <glyph glyph-name="xinxi" unicode="&#58948;" d="M64 91.136 64 676.928l896 0 0-585.792L64 91.136zM917.312 132.864 917.312 132.864 917.312 132.864 917.312 132.864zM890.048 132.864l-209.92 240.192L512 249.984 344 372.992l-209.728-240.064L890.048 132.928zM106.688 164.48l207.616 237.568L106.688 605.76 106.688 164.48zM106.688 635.008 106.688 635.008 106.688 635.008 106.688 635.008zM136.512 635.008l375.424-326.272 375.424 326.272L136.512 635.008zM709.504 401.92l207.808-237.76 0 441.6L709.504 401.92z"  horiz-adv-x="1024" />

    
    <glyph glyph-name="gengduo" unicode="&#58893;" d="M175.79019 272.024719c-61.737086 0-111.975281 50.242288-111.975281 111.974257 0 61.737086 50.238195 111.975281 111.975281 111.975281 61.730946 0 111.974257-50.238195 111.974257-111.975281C287.764448 322.267007 237.521137 272.024719 175.79019 272.024719L175.79019 272.024719zM511.708869 272.024719c-61.730946 0-111.975281 50.242288-111.975281 111.974257 0 61.737086 50.244334 111.975281 111.975281 111.975281 61.737086 0 111.975281-50.238195 111.975281-111.975281C623.683127 322.267007 573.445956 272.024719 511.708869 272.024719L511.708869 272.024719zM847.632665 272.024719c-61.737086 0-111.975281 50.242288-111.975281 111.974257 0 61.737086 50.238195 111.975281 111.975281 111.975281 61.730946 0 111.969141-50.238195 111.969141-111.975281C959.601806 322.267007 909.363611 272.024719 847.632665 272.024719L847.632665 272.024719zM847.632665 272.024719"  horiz-adv-x="1024" />

    
    <glyph glyph-name="fanhui" unicode="&#59068;" d="M702.912-212 192.128 301.216 700.416 812 768.32 743.776 327.936 301.216 770.816-143.776Z"  horiz-adv-x="1024" />

    
    <glyph glyph-name="sousuo1" unicode="&#59348;" d="M1017.749333-91.52 720.746667 205.461333c66.24 73.386667 106.965333 170.24 106.965333 276.672 0 228.202667-185.621333 413.866667-413.866667 413.866667C185.664 896 0 710.336 0 482.133333c0-228.224 185.664-413.866667 413.845333-413.866667 106.453333 0 203.306667 40.725333 276.693333 106.965333L987.52-121.749333C991.701333-125.909333 997.162667-128 1002.624-128c5.482667 0 10.965333 2.090667 15.125333 6.250667C1026.090667-113.365333 1026.090667-99.882667 1017.749333-91.52zM42.730667 482.133333c0 204.650667 166.485333 371.136 371.114667 371.136 204.650667 0 371.157333-166.485333 371.136-371.136 0-204.629333-166.485333-371.136-371.136-371.136C209.216 110.997333 42.730667 277.504 42.730667 482.133333z"  horiz-adv-x="1025" />

    
    <glyph glyph-name="sousuo3" unicode="&#58899;" d="M921.703661-77.32997c-9.824763 0-19.679202 3.756557-27.191292 11.268648L605.889879 222.560144c-11.838629 11.838629-14.662955 29.92659-7.031137 44.799322l4.777817 9.253758c0.690732 1.382487 1.502213 2.734274 2.373047 3.996011 28.364001 41.764196 43.326784 90.61888 43.326784 141.27663 0 138.903583-113.003703 251.906264-251.906264 251.906264-138.872884 0-251.876588-113.003703-251.876588-251.906264 0-138.872884 113.003703-251.876588 251.876588-251.876588 21.272489 0 38.458917-17.216103 38.458917-38.458917s-17.186428-38.458917-38.458917-38.458917c-181.298136 0-328.794421 147.496286-328.794421 328.794421 0 181.298136 147.496286 328.824097 328.794421 328.824097 181.328835 0 328.824097-147.526985 328.824097-328.824097 0-58.769498-15.473413-115.737978-44.949748-165.975149l267.591501-267.590478c15.023158-15.023158 15.023158-39.36045 0-54.383608C941.383886-73.573413 931.528424-77.32997 921.703661-77.32997z"  horiz-adv-x="1024" />

    
    <glyph glyph-name="bangzhu" unicode="&#58886;" d="M512 768c211.2 0 384-172.8 384-384s-172.8-384-384-384c-211.2 0-384 172.8-384 384S300.8 768 512 768M512 896C230.4 896 0 665.6 0 384s230.4-512 512-512c281.6 0 512 230.4 512 512S793.6 896 512 896L512 896zM384 448l192 0 0-64-192 0 0 64ZM448 384l128 0 0-192-128 0 0 192ZM384 192l256 0 0-64-256 0 0 64ZM512 576m-64 0a1 1 0 1 0 128 0 1 1 0 1 0-128 0Z"  horiz-adv-x="1024" />

    
    <glyph glyph-name="gengduo-copy" unicode="&#58908;" d="M258.402 455.003c39.213 0 71.008-31.793 71.008-71.004s-31.793-71.004-71.008-71.004c-39.213 0-71.008 31.793-71.008 71.004s31.795 71.004 71.008 71.004zM511.999 455.003c39.213 0 71.008-31.793 71.008-71.004s-31.793-71.004-71.008-71.004c-39.213 0-71.008 31.793-71.008 71.004s31.795 71.004 71.008 71.004zM765.596 455.003c39.213 0 71.008-31.793 71.008-71.004s-31.793-71.004-71.008-71.004c-39.212 0-71.008 31.793-71.008 71.004s31.795 71.004 71.008 71.004z"  horiz-adv-x="1024" />

    
    <glyph glyph-name="home" unicode="&#58892;" d="M865.382-62.85h-259.409c-9.89 0-17.908 8.018-17.908 17.908v243.895h-151.449v-243.895c0-9.89-8.018-17.908-17.908-17.908h-261.455c-9.89 0-17.908 8.018-17.908 17.908v467.487l-57.457 0c-7.47 0-14.155 4.637-16.773 11.633-2.618 6.996-0.617 14.882 5.018 19.786l429.428 373.619c6.757 5.879 16.817 5.861 23.553-0.039l101.278-88.704-0 75.232c0 9.89 8.018 17.908 17.908 17.908h148.72c9.89 0 17.908-8.018 17.908-17.908v-235.132l143.791-124.494c4.103-3.282 6.731-8.331 6.731-13.993 0-9.89-8.019-17.908-17.908-17.908-0.009 0-0.015 0-0.021 0h-58.232v-467.487c0-9.89-8.018-17.908-17.908-17.908zM623.881-27.034h223.593v467.487c0 9.89 8.018 17.908 17.908 17.908h28.098l-114.181 98.858c-3.928 3.401-6.186 8.342-6.186 13.538v225.408h-112.904v-96.815c0-7.028-4.112-13.406-10.511-16.309-6.4-2.901-13.907-1.792-19.195 2.838l-119.224 104.423-381.523-331.94h27.499c9.89 0 17.908-8.018 17.908-17.908v-467.487h225.639v243.895c0 9.89 8.018 17.908 17.908 17.908h187.265c9.89 0 17.908-8.018 17.908-17.908l0-243.895z"  horiz-adv-x="1024" />

    
    <glyph glyph-name="shanchudelete30" unicode="&#59146;" d="M786.7392 562.57536 608.17408 384 786.7392 205.42464c26.56256-26.56256 26.56256-69.61152 0-96.17408-13.27104-13.27104-30.6688-19.9168-48.06656-19.9168-17.408 0-34.80576 6.63552-48.0768 19.9168L512 287.83616l-178.5856-178.5856c-13.27104-13.27104-30.6688-19.9168-48.0768-19.9168-17.39776 0-34.78528 6.63552-48.06656 19.9168-26.56256 26.55232-26.56256 69.60128 0 96.17408L415.82592 384 237.2608 562.57536c-26.56256 26.56256-26.56256 69.61152 0 96.17408 26.55232 26.54208 69.5808 26.54208 96.14336 0L512 480.16384l178.5856 178.5856c26.56256 26.54208 69.59104 26.54208 96.14336 0C813.30176 632.18688 813.30176 589.13792 786.7392 562.57536z"  horiz-adv-x="1024" />

    
    <glyph glyph-name="leimupinleifenleileibie" unicode="&#59385;" d="M320 384 192 384c-70.4 0-128-57.6-128-128l0-128c0-70.4 57.6-128 128-128l128 0c70.4 0 128 57.6 128 128l0 128C448 326.4 390.4 384 320 384zM384 128c0-35.2-28.8-64-64-64L192 64c-35.2 0-64 28.8-64 64l0 128c0 35.2 28.8 64 64 64l128 0c35.2 0 64-28.8 64-64L384 128zM768 832l-128 0C569.6 832 512 774.4 512 704l0-128c0-70.4 57.6-128 128-128l128 0c70.4 0 128 57.6 128 128L896 704C896 774.4 838.4 832 768 832zM832 576c0-35.2-28.8-64-64-64l-128 0C604.8 512 576 540.8 576 576L576 704c0 35.2 28.8 64 64 64l128 0c35.2 0 64-28.8 64-64L832 576zM768 384l-128 0c-70.4 0-128-57.6-128-128l0-128c0-70.4 57.6-128 128-128l128 0c70.4 0 128 57.6 128 128l0 128C896 326.4 838.4 384 768 384zM832 128c0-35.2-28.8-64-64-64l-128 0c-35.2 0-64 28.8-64 64l0 128c0 35.2 28.8 64 64 64l128 0c35.2 0 64-28.8 64-64L832 128zM320 832 192 832C121.6 832 64 774.4 64 704l0-128c0-70.4 57.6-128 128-128l128 0c70.4 0 128 57.6 128 128L448 704C448 774.4 390.4 832 320 832zM384 576c0-35.2-28.8-64-64-64L192 512C156.8 512 128 540.8 128 576L128 704c0 35.2 28.8 64 64 64l128 0c35.2 0 64-28.8 64-64L384 576z"  horiz-adv-x="1024" />

    
    <glyph glyph-name="gengduoda" unicode="&#58931;" d="M384 0C384 70.692448 440.814697 128 512 128 582.692448 128 640 71.185306 640 0 640-70.692448 583.185303-128 512-128 441.307552-128 384-71.185306 384 0ZM384 384C384 454.692448 440.814697 512 512 512 582.692448 512 640 455.185303 640 384 640 313.307552 583.185303 256 512 256 441.307552 256 384 312.814697 384 384ZM384 768C384 838.692448 440.814697 896 512 896 582.692448 896 640 839.185303 640 768 640 697.307552 583.185303 640 512 640 441.307552 640 384 696.814697 384 768Z"  horiz-adv-x="1024" />

    
    <glyph glyph-name="fanhui1" unicode="&#59063;" d="M263.031 385.891l458.561 458.861c7.865 8.069 7.7 21.094-0.369 28.959s-21.094 7.7-28.959-0.369c0 0-472.774-473.184-472.883-473.279-7.865-8.069-7.7-21.094 0.369-28.959l472.446-467.285c8.069-7.865 21.094-7.7 28.959 0.369s7.7 21.094-0.369 28.959l-457.756 452.745z"  horiz-adv-x="1024" />

    
    <glyph glyph-name="denglu1" unicode="&#58888;" d="M511.949858 412.398794c108.105137 0 195.798385 87.766926 195.798385 195.798385 0 108.080577-87.693248 195.798385-195.798385 195.798385-108.080577 0-195.798385-87.717807-195.798385-195.798385C316.151473 500.16572 403.869281 412.398794 511.949858 412.398794zM560.898687 314.500113c-195.798385 0-440.545598-65.347311-440.545598-195.798385l0-146.848533 783.191492 0L903.544581 118.701728C903.545604 249.152802 691.446975 314.500113 560.898687 314.500113z"  horiz-adv-x="1024" />

    
    <glyph glyph-name="xiangqing" unicode="&#58939;" d="M809.472 588.9536 214.528 588.9536c-14.6432 0-26.4704 11.8784-26.4704 26.4704 0 14.6432 11.8784 26.4704 26.4704 26.4704L809.472 641.8944c14.6432 0 26.4704-11.8784 26.4704-26.4704C835.9424 600.832 824.064 588.9536 809.472 588.9536L809.472 588.9536zM809.472 588.9536M469.8624 135.7824 469.8624 135.7824l-255.2832 0c-14.6432 0-26.4704 11.8784-26.4704 26.4704 0 14.6432 11.8784 26.4704 26.4704 26.4704l0 0 255.2832 0c14.6432 0 26.4704-11.8784 26.4704-26.4704C496.3328 147.6608 484.4544 135.7824 469.8624 135.7824L469.8624 135.7824zM469.8624 135.7824M809.472 362.3936 214.528 362.3936c-14.6432 0-26.4704 11.8784-26.4704 26.4704 0 14.6432 11.8784 26.4704 26.4704 26.4704L809.472 415.3344c14.6432 0 26.4704-11.8784 26.4704-26.4704C835.9424 374.2208 824.064 362.3936 809.472 362.3936L809.472 362.3936zM809.472 362.3936M749.1584-111.8208l-53.0944 0c-14.6432 0-26.4704 11.8784-26.4704 26.4704s11.8784 26.4704 26.4704 26.4704l52.8896 0c0.9216 0.1024 13.4144 2.1504 46.7456 27.5456 23.04 17.6128 50.6368 42.2912 77.568 69.5296 26.5216 26.7776 51.0976 54.5792 69.12 78.2336 24.9344 32.7168 28.2624 45.4656 28.5696 47.0528L970.9568 669.696c0 86.6304-70.5024 157.1328-157.1328 157.1328L210.0736 826.8288c-86.6304 0-157.1328-70.5024-157.1328-157.1328l0-571.392c0-86.6816 70.5024-157.1328 157.1328-157.1328L467.456-58.8288c14.6432 0 26.4704-11.8784 26.4704-26.4704s-11.8784-26.4704-26.4704-26.4704L210.0736-111.7696C94.2592-111.8208 0-17.5616 0 98.304L0 669.696c0 115.8656 94.2592 210.0736 210.0736 210.0736l603.8016 0C929.7408 879.8208 1024 785.5616 1024 669.696l0-506.6752c0-12.0832-4.1472-31.5392-36.5568-74.8032-19.3536-25.9072-46.08-56.4224-75.1616-85.8624-29.5936-30.0032-60.0576-57.2416-85.7088-76.6976C782.2848-107.9296 761.1904-111.8208 749.1584-111.8208L749.1584-111.8208zM749.1584-111.8208M692.1728-106.3424c-14.6432 0-26.4704 11.8784-26.4704 26.4704l0 133.2736c0 103.8336 84.48 188.3136 188.3136 188.3136l117.0944 0c14.6432 0 26.4704-11.8784 26.4704-26.4704 0-14.6432-11.8784-26.4704-26.4704-26.4704L854.016 188.7744c-74.6496 0-135.3728-60.7232-135.3728-135.3728l0-133.2736C718.6944-94.464 706.816-106.3424 692.1728-106.3424L692.1728-106.3424zM692.1728-106.3424"  horiz-adv-x="1024" />

    
    <glyph glyph-name="denglu" unicode="&#58883;" d="M736.8 242.4c0 0-124.8 37.6-141.6 60.8L595.2 380.8c0 0 36.8 34.4 36.8 88.8 0 0 25.6 4 25.6 48.8 0 0 4.8 22.4-12 45.6 0 0 20.8 108-16.8 142.4 0 0-34.4 56.8-116.8 61.6-82.4-4.8-116.8-61.6-116.8-61.6-37.6-34.4-16.8-142.4-16.8-142.4C361.6 540.8 366.4 518.4 366.4 518.4c0-44.8 25.6-48.8 25.6-48.8C392 415.2 428.8 380.8 428.8 380.8l0-77.6c-16.8-23.2-141.6-60.8-141.6-60.8C130.4 228 128 52.8 128 52.8c0-55.2 27.2-52.8 27.2-52.8L512 0l356.8 0c0 0 27.2-2.4 27.2 52.8C896 52.8 893.6 228 736.8 242.4z"  horiz-adv-x="1024" />

    
    <glyph glyph-name="gengduo9" unicode="&#58927;" d="M514.554 834c-248.709 0-450.284-200.379-450.284-447.598s201.586-447.594 450.283-447.594c248.674 0 450.261 200.375 450.261 447.594 0.001 247.211-201.587 447.598-450.261 447.598zM514.479-3.037c-214.814 0-388.955 174.142-388.955 388.955 0 214.814 174.142 388.955 388.955 388.955 214.813 0 388.955-174.142 388.955-388.955 0-214.814-174.142-388.955-388.955-388.955zM280.224 388.553c0-31.312 25.384-56.695 56.695-56.695s56.695 25.384 56.695 56.695c0 31.312-25.384 56.695-56.695 56.695-31.312 0-56.695-25.384-56.695-56.695zM470.086 388.553c0-31.312 25.384-56.695 56.695-56.695s56.695 25.384 56.695 56.695c0 31.312-25.384 56.695-56.695 56.695-31.312 0-56.695-25.384-56.695-56.695zM641.49 388.553c0-31.312 25.384-56.695 56.695-56.695s56.695 25.384 56.695 56.695c0 31.312-25.384 56.695-56.695 56.695-31.312 0-56.695-25.384-56.695-56.695z"  horiz-adv-x="1028" />

    
    <glyph glyph-name="delete" unicode="&#58933;" d="M511.89 767.255c-201.852 0-365.49-163.638-365.49-365.49 0-201.851 163.638-365.49 365.49-365.49 201.851 0 365.489 163.638 365.489 365.49 0 201.853-163.638 365.49-365.489 365.49v0zM688.52 269.311l-44.187-44.175-132.442 132.455-132.442-132.455-44.187 44.175 132.442 132.455-132.442 132.442 44.152 44.187 132.466-132.455 132.455 132.455 44.187-44.187-132.455-132.455 132.455-132.442zM688.52 269.311z"  horiz-adv-x="1024" />

    
    <glyph glyph-name="gengduomore11" unicode="&#58889;" d="M232.727273 384m-93.090909 0a2 2 0 1 0 186.181818 0 2 2 0 1 0-186.181818 0ZM791.272727 384m-93.090909 0a2 2 0 1 0 186.181818 0 2 2 0 1 0-186.181818 0ZM512 384m-93.090909 0a2 2 0 1 0 186.181818 0 2 2 0 1 0-186.181818 0ZM1024 384c0 282.763636-229.236364 512-512 512C229.236364 896 0 666.763636 0 384c0-282.763636 229.236364-512 512-512C794.763636-128 1024 101.236364 1024 384zM46.545455 384C46.545455 641.070545 254.929455 849.454545 512 849.454545s465.454545-208.384 465.454545-465.454545-208.384-465.454545-465.454545-465.454545S46.545455 126.929455 46.545455 384z"  horiz-adv-x="1024" />

    
    <glyph glyph-name="email" unicode="&#58909;" d="M1241.361835 709.818197 1515.053483 709.818197 1515.053483 708.454571 1239.436203 708.454571 768 374.614613 292.645035 708.454571 40.189867 708.454571 774.076245 183.386368 1515.053483 705.762816 1515.053483-128 25.598976-128 25.598976 709.818197 290.70336 709.818197 25.598976 896 1504.280747 896 1241.361835 709.818197Z"  horiz-adv-x="1536" />

    
    <glyph glyph-name="denglu5" unicode="&#58926;" d="M819.292 272.215c-40.844 40.844-88.387 72.547-140.151 94.102 69.587 51.392 114.809 133.97 114.809 226.921 0 155.467-126.483 281.951-281.951 281.951s-281.951-126.483-281.951-281.951c0-92.95 45.221-175.529 114.809-226.921-51.762-21.555-99.308-53.26-140.151-94.102-82.080-82.080-127.284-191.213-127.284-307.292 0-32.174 26.082-58.254 58.254-58.254s58.254 26.080 58.254 58.254c0 175.385 142.685 318.068 318.068 318.068 175.385 0 318.068-142.685 318.068-318.068 0-32.174 26.080-58.254 58.254-58.254s58.254 26.080 58.254 58.254c0 116.081-45.204 225.211-127.284 307.292zM512 758.68c91.225 0 165.442-74.218 165.442-165.442s-74.218-165.442-165.442-165.442-165.442 74.218-165.442 165.442 74.218 165.442 165.442 165.442z"  horiz-adv-x="1024" />

    
    <glyph glyph-name="xiaoxi" unicode="&#58950;" d="M510.546905 50.443112c-28.559453 0-56.403614 2.591011-83.47518 7.057743l-195.717544-118.735242L231.354182 136.449951c-102.028745 71.6519-167.516248 181.482331-167.516248 304.864406 0 215.879746 200.007243 390.870222 446.708971 390.870222s446.708971-174.9915 446.708971-390.870222S757.248633 50.443112 510.546905 50.443112L510.546905 50.443112zM510.546905 776.34583c-215.879746 0-390.871245-150.004409-390.871245-335.032496 0-113.523543 66.053392-213.706243 166.830633-274.27983l-1.757017-129.515772 131.422192 79.007425c30.286794-6.431479 61.764716-10.244318 94.374414-10.244318 215.879746 0 390.871245 150.004409 390.871245 335.032496S726.425627 776.34583 510.546905 776.34583L510.546905 776.34583zM733.900879 385.474584c-30.852682 0-55.838749 24.985044-55.838749 55.838749 0 30.823006 24.986067 55.838749 55.838749 55.838749 30.853705 0 55.838749-24.985044 55.838749-55.838749C789.739629 410.460652 764.754584 385.474584 733.900879 385.474584L733.900879 385.474584zM510.546905 385.474584c-30.823006 0-55.838749 24.985044-55.838749 55.838749 0 30.823006 25.015743 55.838749 55.838749 55.838749 30.853705 0 55.838749-24.985044 55.838749-55.838749C566.385655 410.460652 541.369911 385.474584 510.546905 385.474584L510.546905 385.474584zM287.191908 385.474584c-30.852682 0-55.838749 24.985044-55.838749 55.838749 0 30.823006 24.985044 55.838749 55.838749 55.838749 30.823006 0 55.838749-24.985044 55.838749-55.838749C343.030657 410.460652 318.04459 385.474584 287.191908 385.474584L287.191908 385.474584z"  horiz-adv-x="1024" />

    
    <glyph glyph-name="xinxi3" unicode="&#58956;" d="M791.589047 671.878473l-567.979212 0c-30.189886 0-54.751149-24.561263-54.751149-54.751149l0-369.442335c0-30.189886 24.561263-54.751149 54.751149-54.751149l361.357585 0 140.203878-101.008195c5.423946-4.605237 12.178293-6.959025 19.034979-6.959025 3.786528 0 7.675395 0.71637 11.359584 2.251449 11.052568 4.605237 18.113932 15.248451 18.113932 27.222067L773.679792 192.93384l17.909254 0c30.189886 0 54.751149 24.561263 54.751149 54.751149l0 369.442335C846.340196 647.31721 821.778933 671.878473 791.589047 671.878473zM801.311213 247.684989c0-5.219268-4.502898-9.722167-9.722167-9.722167L728.65081 237.962822l0-45.028983 0 0 0-47.996802-129.560664 93.3328-0.409354-0.511693L598.680792 237.962822 223.609834 237.962822c-5.219268 0-9.722167 4.502898-9.722167 9.722167l0 369.442335c0 5.219268 4.502898 9.722167 9.722167 9.722167l567.979212 0c5.219268 0 9.722167-4.502898 9.722167-9.722167L801.311213 247.684989zM380.69958 466.177893l-40.935439 0c-5.628623 0-10.23386-4.605237-10.23386-10.23386l0-40.935439c0-5.628623 4.605237-10.23386 10.23386-10.23386l40.935439 0c5.628623 0 10.23386 4.605237 10.23386 10.23386l0 40.935439C390.93344 461.572656 386.328203 466.177893 380.69958 466.177893zM536.254247 456.96742c0 5.628623-4.605237 10.23386-10.23386 10.23386l-40.935439 0c-5.628623 0-10.23386-4.605237-10.23386-10.23386l0-40.935439c0-5.628623 4.605237-10.23386 10.23386-10.23386l40.935439 0c5.628623 0 10.23386 4.605237 10.23386 10.23386L536.254247 456.96742zM683.621827 456.96742c0 5.628623-4.605237 10.23386-10.23386 10.23386l-40.935439 0c-5.628623 0-10.23386-4.605237-10.23386-10.23386l0-40.935439c0-5.628623 4.605237-10.23386 10.23386-10.23386l40.935439 0c5.628623 0 10.23386 4.605237 10.23386 10.23386L683.621827 456.96742z"  horiz-adv-x="1024" />

    
    <glyph glyph-name="ai238" unicode="&#59106;" d="M161.12861 560.356926l175.499908 0 0 175.494791-175.499908 0L161.12861 560.356926zM424.339074 33.939067l175.498884 0 0 175.494791-175.498884 0L424.339074 33.939067zM161.12861 33.939067l175.499908 0 0 175.494791-175.499908 0L161.12861 33.939067zM161.12861 297.145438l175.499908 0 0 175.498884-175.499908 0L161.12861 297.145438zM424.339074 297.145438l175.498884 0 0 175.498884-175.498884 0L424.339074 297.145438zM687.550561 560.356926l175.498884 0 0 175.494791-175.498884 0L687.550561 560.356926zM424.339074 560.356926l175.498884 0 0 175.494791-175.498884 0L424.339074 560.356926zM687.550561 297.145438l175.498884 0 0 175.498884-175.498884 0L687.550561 297.145438zM687.550561 33.939067l175.498884 0 0 175.494791-175.498884 0L687.550561 33.939067z"  horiz-adv-x="1024" />

    
    <glyph glyph-name="tubiao39" unicode="&#58920;" d="M512 896C227.84 896 0 668.16 0 384s227.84-512 512-512c284.096 0 512 227.84 512 512S796.096 896 512 896L512 896zM768 199.68 696.256 128 512 312.32 327.616 128 256 199.68 440.256 384 256 568.32 327.616 640 512 455.68 696.256 640 768 568.32 583.616 384 768 199.68 768 199.68zM768 199.68"  horiz-adv-x="1024" />

    
    <glyph glyph-name="iconfontzhizuobiaozhun19" unicode="&#58901;" d="M748.406756 385.160429 748.656443 385.408069 306.594305 827.479417 300.948725 833.123974 263.007601 795.18592 673.026952 385.160429 268.638855-19.204132 262.994298-24.849712 300.932352-62.791859 748.657466 384.908696Z"  horiz-adv-x="1024" />

    
    <glyph glyph-name="fanhui2" unicode="&#58953;" d="M508.986237 521.275503c-112.784333-10.041704-220.548115-79.564104-220.548115-193.116299 0-122.822326 98.493262-222.084051 220.548115-222.084051S729.534352 205.336878 729.534352 328.159204l165.700694 0c0-214.744899-173.039131-388.550387-386.24881-388.550387S122.737427 113.413282 122.737427 328.159204c0 205.475791 183.468082 347.608929 386.24881 359.582635L508.986237 827.943998l275.781339-222.084051 0-27.808346L508.986237 383.776919 508.986237 521.275503z"  horiz-adv-x="1024" />

    
    <glyph glyph-name="info-1-copy" unicode="&#58890;" d="M755.57 541.331h-487.473c-22.452 0-40.622-18.17-40.622-40.622s18.171-40.621 40.622-40.621h487.473c22.454 0 40.621 18.169 40.621 40.621s-18.166 40.622-40.621 40.622zM755.57 703.822h-487.473c-22.452 0-40.622-18.17-40.622-40.622s18.171-40.622 40.622-40.622h487.473c22.454 0 40.621 18.171 40.621 40.622 0 22.453-18.166 40.622-40.621 40.622zM958.683 221.699v563.369c0 44.867-36.374 81.245-81.245 81.245h-731.21c-44.866 0-81.245-36.379-81.245-81.245v-812.454c0-44.869 36.38-81.247 81.245-81.247h479.19c12.915-2.64 26.864 1.045 36.886 11.069l284.876 284.875c9.38 9.382 13.213 22.199 11.503 34.389zM674.324 29.341v146.385h146.386l-146.386-146.385zM877.437 256.973h-243.737c-22.45 0-40.621-18.171-40.621-40.624 0-0.073 0.004-0.146 0.005-0.219-0.001-0.073-0.005-0.146-0.005-0.219v-243.299h-406.227c-22.45 0-40.622 18.169-40.622 40.621v731.21c0 22.452 18.172 40.622 40.622 40.622h649.962c22.454 0 40.622-18.171 40.622-40.622v-487.472z"  horiz-adv-x="1024" />

    
    <glyph glyph-name="iconmore" unicode="&#58894;" d="M61.062727 833.402313 61.062727 654.5376l896.41623 0L957.478957 833.402313 61.062727 833.402313zM61.062727 296.789753l896.41623 0 0 178.873923-896.41623 0L61.062727 296.789753zM61.062727-60.967304l896.41623 0 0 178.873923-896.41623 0L61.062727-60.967304z"  horiz-adv-x="1024" />

    
    <glyph glyph-name="weibiaoti2fuzhi12" unicode="&#58924;" d="M768 230.4c-6.4 6.4-12.8 12.8-19.2 12.8-19.2 0-32-12.8-32-32 0-12.8 6.4-19.2 12.8-25.6l0 0 0 0c76.8-57.6 128-147.2 134.4-249.6l57.6 0C915.2 57.6 857.6 160 768 230.4M524.8 339.2c-115.2 0-211.2 96-211.2 211.2C307.2 672 403.2 768 524.8 768c115.2 0 211.2-96 211.2-211.2C736 435.2 640 339.2 524.8 339.2zM800 550.4c0 153.6-121.6 281.6-281.6 281.6C371.2 832 243.2 710.4 243.2 550.4c0-102.4 57.6-192 140.8-243.2C224 262.4 108.8 115.2 102.4-64l57.6 0C166.4 121.6 320 268.8 505.6 275.2l6.4 0c6.4 0 6.4 0 12.8 0C678.4 275.2 800 396.8 800 550.4z"  horiz-adv-x="1024" />

    
    <glyph glyph-name="buoumaotubiao14" unicode="&#58895;" d="M313.836392 548.796012c-36.407342 0-66.062271-29.631724-66.062271-66.062271s29.631724-66.062271 66.062271-66.062271c36.430546 0 66.085475 29.631724 66.085475 66.062271S350.266939 548.796012 313.836392 548.796012L313.836392 548.796012 313.836392 548.796012zM512.023204 548.796012c-36.407342 0-66.062271-29.631724-66.062271-66.062271s29.631724-66.062271 66.062271-66.062271 66.062271 29.631724 66.062271 66.062271S548.430546 548.796012 512.023204 548.796012L512.023204 548.796012 512.023204 548.796012zM710.186812 548.796012c-36.407342 0-66.085475-29.631724-66.085475-66.062271s29.654929-66.062271 66.085475-66.062271c36.384138 0 66.039066 29.631724 66.039066 66.062271S746.570949 548.796012 710.186812 548.796012L710.186812 548.796012 710.186812 548.796012zM512.023204 20.390664c-12.831906 0-23.204169 10.395468-23.204169 23.204169s10.372264 23.204169 23.204169 23.204169c255.315477 0 463.039202 174.704192 463.039202 389.435577S767.338681 845.670156 512.023204 845.670156c-255.338681 0-463.085611-174.704192-463.085611-389.435577 0-130.314616 77.107455-251.440381 206.285067-324.069431 11.161206-6.28833 15.129119-20.419669 8.863993-31.604079-6.28833-11.138001-20.419669-15.152323-31.604079-8.840789C88.477498 172.656424 2.529254 308.934512 2.529254 456.23458c0 240.325584 228.56107 435.843916 509.49395 435.843916 280.909676 0 509.447541-195.518332 509.447541-435.843916S792.93288 20.390664 512.023204 20.390664zM261.255744-128.023204l37.985225 196.748153c2.413234 12.57666 14.340177 20.860548 27.172082 18.377702 12.57666-2.413234 20.81414-14.595423 18.377702-27.172082l-18.679356-96.877408 174.309721 100.752504c11.068389 6.450759 25.269341 2.622071 31.696896-8.469522 6.404351-11.091593 2.598867-25.292545-8.492726-31.696896L261.255744-128.023204z"  horiz-adv-x="1024" />

    
    <glyph glyph-name="sousuo4" unicode="&#59012;" d="M103.355 203.449l324.675 0c-34.137 24.771-64.03 54.772-88.375 88.972l-236.304 0c-22.82 0-41.317-18.126-41.317-40.631l0-7.541c0-22.5 18.495-40.801 41.317-40.801M831.502 192.561c-7.753 20.078-30.923 30.345-51.712 22.759l-9.753-3.555c-20.959-7.312-31.542-29.679-23.745-49.568l70.329-181.652c7.821-20.014 30.9-30.212 51.684-22.736l9.813 3.537c20.979 7.312 31.567 29.744 23.745 49.651l-70.377 181.571zM663.154 55.179l-559.798-0.042c-22.82 0-41.317-18.173-41.317-40.65l0-7.541c0-22.522 18.495-40.845 41.317-40.845l559.798 0c22.799 0 41.271 18.235 41.271 40.738l0 7.63c0.042 22.479-18.451 40.719-41.271 40.719M357.978 464.69c4.994-30.042 14.576-59.939 29.358-88.506 16.135-31.113 37.267-58.141 61.633-80.876 32.937-30.817 71.94-53.828 114.134-67.46 74.426-24.153 158.064-20.078 233.217 17.766 149.426 75.474 208.636 256.275 132.348 403.86-65.164 125.578-207.373 186.305-340.533 155.082-23.274-5.423-46.245-13.351-68.49-24.561-30.646-15.47-57.238-35.484-79.909-58.611-46.332-47.251-75.411-107.874-83.425-171.948-3.515-27.921-2.98-56.426 1.67-84.753M657.922 740.035c127.227 0 230.322-101.786 230.322-227.366 0-125.536-103.118-227.299-230.322-227.299-127.162 0-230.237 101.746-230.237 227.299 0.022 125.554 103.094 227.366 230.237 227.366M106.335 536.673c-24.475 0-44.271-19.629-44.271-43.695l0-8.228c0-24.129 19.822-43.629 44.271-43.629l169.699 0c-4.434 23.207-6.986 47.103-6.986 71.596 0 8.038 0.685 15.964 1.242 23.957l-163.953 0zM103.355 699.707l215.087 0c18.707 33.023 42.213 62.961 69.559 89.038l-284.642 0c-22.82 0-41.317-18.126-41.317-40.631l0-7.587c0-22.522 18.495-40.82 41.317-40.82z"  horiz-adv-x="1024" />

    
    <glyph glyph-name="xinxi31" unicode="&#58952;" d="M512.300999 873.124045c-282.939447 0-511.699001-200.465608-511.699001-447.285126 0-12.641975 0.601999-25.283951 1.805996-37.925926 12.039976-125.817754 83.677837-236.585538 190.231628-311.233392L192.639624-91.278072c0-25.885949 28.293945-41.537919 49.965902-28.293945l173.97766 105.349794c31.303939-4.815991 63.209877-7.825985 95.717813-7.825985 267.889477 0 487.619048 179.997648 509.893004 409.3592 1.203998 12.641975 2.407995 25.283951 2.407995 37.925926C1024 672.658436 794.638448 873.124045 512.300999 873.124045zM255.8495 445.102881c0 17.457966 14.447972 31.905938 31.905938 31.905938l46.955908 0c17.457966 0 31.905938-14.447972 31.905938-31.905938 0-17.457966-14.447972-31.905938-31.905938-31.905938l-46.955908 0C270.297472 412.594944 255.8495 427.042916 255.8495 445.102881zM671.830688 265.707231 352.169312 265.707231c-17.457966 0-31.905938 14.447972-31.905938 31.905938 0 17.457966 14.447972 31.905938 31.905938 31.905938l320.263374 0c17.457966 0 31.905938-14.447972 31.905938-31.905938C703.736626 280.155203 689.890653 265.707231 671.830688 265.707231zM736.244562 412.594944 455.71311 412.594944c-17.457966 0-31.905938 14.447972-31.905938 31.905938 0 17.457966 14.447972 31.905938 31.905938 31.905938l279.929453 0c17.457966 0 31.905938-14.447972 31.905938-31.905938C768.1505 427.042916 753.702528 412.594944 736.244562 412.594944z"  horiz-adv-x="1025" />

    
    <glyph glyph-name="fanhui3" unicode="&#58997;" d="M328.555136 380.412177l364.265028 364.265028c20.07399 20.049007 20.07399 52.553369 0 72.577393-20.024024 20.049007-52.528386 20.049007-72.577393 0L220.992263 418.028872c-20.024024-20.024024-20.024024-52.528386 0-72.577393 1.578929-1.578929 3.383306-2.83188 5.112534-4.160179 0.300796-0.325779 0.526243-0.701724 0.827039-1.027503l389.877663-389.877663c19.57293-19.57293 51.300418-19.57293 70.873148 0s19.57293 51.300418 0 70.873148L328.555136 380.412177z"  horiz-adv-x="1024" />

    
    <glyph glyph-name="shouye" unicode="&#58966;" d="M524.151058 778.413733c-7.124056-5.839457-16.865341-5.887489-24.013924-0.14614l414.68321-333.106587c11.860822-9.527697 29.198307-7.636056 38.726004 4.224766 9.527697 11.860822 7.636056 29.198307-4.224766 38.726004L534.638371 821.218363c-13.164838 10.57418-32.38681 10.479138-45.411641-0.197238L74.466874 481.054148c-11.76578-9.6442-13.485733-27.00008-3.841533-38.76586 9.6442-11.76578 27.00008-13.485733 38.76586-3.841533L524.151058 778.413733zM949.321581 336.610874l-414.68321 333.106587c-13.164838 10.57418-32.38681 10.479138-45.411641-0.197238L74.466874 329.553246c-11.76578-9.6442-13.485733-27.00008-3.841533-38.76586 9.6442-11.76578 27.00008-13.485733 38.76586-3.841533l58.288287 47.777469 0-315.732311c0-45.630339 37.014228-82.607776 82.660918-82.607776L422.476647-63.616766l27.545804 0 0 27.545804 0 188.356727c0 7.615617 6.163417 13.783122 13.756551 13.783122l96.443018 0c7.5962 0 13.756551-6.164439 13.756551-13.783122l0-188.356727L573.978571-63.616766 601.523353-63.616766l172.13624 0c45.671218 0 82.660918 36.969261 82.660918 82.607776L856.320511 340.652711l58.499832-46.991585c11.860822-9.527697 29.198307-7.636056 38.726004 4.224766C963.073022 309.745693 961.182403 327.0842 949.321581 336.610874zM801.228902 18.99101c0-15.205685-12.317637-27.516168-27.569309-27.516168L629.069158-8.525158 629.069158 152.285764c0 38.035162-30.816064 68.873709-68.847138 68.873709l-96.443018 0c-38.026986 0-68.847138-30.840591-68.847138-68.873709l0-160.810922L250.340407-8.525158c-15.232255 0-27.569309 12.32479-27.569309 27.516168L222.771098 379.880495l289.404679 237.216447 289.054148-232.190467L801.229924 18.99101z"  horiz-adv-x="1024" />

    
    <glyph glyph-name="xiangqing1" unicode="&#58907;" d="M348.16 693.76v179.2l-256-217.6H307.2c20.48 0 40.96 17.92 40.96 38.4z m-58.88-2.56H166.4l145.92 110.08v-89.6c-2.56-10.24-12.8-20.48-23.04-20.48z m440.32-399.36H291.84c-10.24 0-17.92-10.24-17.92-25.6v-25.6c0-12.8 7.68-25.6 17.92-25.6h437.76c10.24 0 17.92 10.24 17.92 25.6v25.6c0 15.36-7.68 25.6-17.92 25.6zM860.16 872.96H360.96v-202.24c0-17.92-17.92-38.4-35.84-38.4h-230.4v-704c0-17.92 17.92-38.4 35.84-38.4h727.04c17.92 0 35.84 23.04 35.84 40.96V839.68c0 17.92-15.36 33.28-33.28 33.28z m-5.12-906.24c0-17.92-15.36-38.4-33.28-38.4H161.28c-17.92-2.56-33.28 17.92-33.28 35.84v614.4h209.92c15.36 0 69.12 56.32 69.12 71.68V834.56h417.28c15.36 0 28.16-12.8 28.16-30.72v-837.12z m-125.44 504.32H291.84c-10.24 0-17.92-10.24-17.92-23.04v-23.04c0-12.8 7.68-23.04 17.92-23.04h437.76c10.24 0 17.92 10.24 17.92 23.04v23.04c0 12.8-7.68 23.04-17.92 23.04z m0-360.96H291.84c-10.24 0-17.92-10.24-17.92-23.04v-25.6c0-12.8 7.68-25.6 17.92-25.6h437.76c10.24 0 17.92 10.24 17.92 25.6v25.6c0 10.24-7.68 23.04-17.92 23.04z"  horiz-adv-x="1024" />

    
    <glyph glyph-name="gengduo1" unicode="&#58900;" d="M0 711.68h153.6v102.4H0v-102.4z m307.2 102.4v-102.4h716.8v102.4H307.2z m-307.2-460.8h153.6v102.4H0v-102.4z m307.2 0h716.8v102.4H307.2v-102.4z m-307.2-358.4h153.6v102.4H0v-102.4z m307.2 0h716.8v102.4H307.2v-102.4z"  horiz-adv-x="1024" />

    
    <glyph glyph-name="fenlei" unicode="&#58896;" d="M25.391 331.284c-12.417 0-22.52 10.103-22.52 22.514 0 12.42 10.103 22.522 22.52 22.522h307.185c12.418 0 22.52-10.103 22.52-22.522 0-12.41-10.102-22.514-22.52-22.514h-307.185zM25.391 660.305c-12.417 0-22.52 10.097-22.52 22.514 0 12.419 10.103 22.522 22.52 22.522h303.164c12.419 0 22.523-10.103 22.523-22.522 0-12.418-10.103-22.514-22.523-22.514h-303.164zM25.391-56.872c-12.417 0-22.52 10.104-22.52 22.522 0 12.418 10.103 22.521 22.52 22.521h973.539c12.418 0 22.52-10.103 22.52-22.521 0-12.418-10.102-22.522-22.52-22.522h-973.539zM999.742 276.157c-6.030 0-11.692 2.346-15.943 6.61l-135.56 135.902-1.020-0.836c-40.943-33.651-90.744-51.432-144.008-51.432-60.808 0-117.981 23.731-160.983 66.818-88.692 88.948-88.692 233.671-0.007 322.613 43.009 43.105 100.182 66.843 160.99 66.843 60.807 0 117.974-23.737 160.964-66.843 39.85-39.954 63.373-93.089 66.232-149.628 2.841-56.122-14.807-110.986-49.697-154.484l-0.812-1.013 135.786-136.129c4.251-4.257 6.585-9.916 6.578-15.93-0.012-6.017-2.358-11.667-6.614-15.918-4.253-4.24-9.902-6.573-15.906-6.573zM703.211 777.63c-48.763 0-94.611-19.040-129.104-53.611-71.198-71.399-71.192-187.585 0.007-258.99 34.487-34.56 80.335-53.593 129.098-53.593 48.756 0 94.598 19.033 129.079 53.6 71.222 71.405 71.222 187.584-0.006 258.989-34.481 34.566-80.317 53.606-129.073 53.606zM703.211 777.63z"  horiz-adv-x="1024" />

    
    <glyph glyph-name="more-br" unicode="&#58954;" d="M863.475712 738.035712C768.909312 832.602112 643.176448 884.682752 509.44 884.682752S249.970688 832.602112 155.404288 738.035712C60.837888 643.469312 8.757248 517.736448 8.757248 384s52.08064-259.469312 146.64704-354.035712c94.5664-94.5664 220.297216-146.644992 354.035712-146.644992 133.736448 0 259.469312 52.08064 354.035712 146.644992S1010.122752 250.263552 1010.122752 384s-52.08064 259.469312-146.64704 354.035712zM509.44-75.722752C255.9488-75.722752 49.717248 130.5088 49.717248 384c0 253.4912 206.231552 459.722752 459.722752 459.722752 253.4912 0 459.722752-206.231552 459.722752-459.722752 0-253.4912-206.231552-459.722752-459.722752-459.722752zM189.46048 436.310016h104.620032v-104.620032H189.46048zM724.287488 436.310016h105.13408v-104.620032h-105.13408zM466.343936 436.310016h104.62208v-104.620032h-104.62208z"  horiz-adv-x="1024" />

    
    <glyph glyph-name="wode" unicode="&#58965;" d="M443.208024 880.517197c-35.604302 0-30.120809-15.667122-49.284874-18.355108-19.174304-2.693107 3.875821 7.577562-53.626611-3.199984C282.799226 848.174319 262.503647 775.434843 259.759341 748.488418c-2.739186-26.931065-3.425263-102.675967-1.602552-143.103285 5.478373-24.237959-13.685692-24.237959-13.685691-24.237959-34.447188 2.170869-18.964385-103.484923-18.964386-103.484922 4.951015-26.03507-1.781751-39.003965 49.238794-59.176664 24.299399-68.111019 87.776841-104.140279 87.776841-104.14028s0.317438 6.722526 1.279994-24.391558c-5.191654 2.544627 42.101549-79.528562-116.361658-102.553087-158.478568-22.998925-188.814416-122.280349-218.694587-150.378768-29.880171-28.139379-28.717936-164.474058-28.717936-164.474058l1022.730246-0.542717s-7.598042 136.882516-37.478212 165.016775c-29.869931 28.09842-62.417608 127.384963-220.880816 150.383888-154.06515 21.93397-104.355318 102.850046-105.445873 107.693542 0.286719 12.262339 1.95583 15.498163 1.95583 15.498162s53.800691 41.784111 78.08985 109.92073c38.246209 23.756681 52.807416 27.069305 59.135704 54.440688 0 0 11.243464 106.746346-24.862595 106.198509 0 0-17.116074-5.406693-11.632582 18.846626 5.473253 24.253319 3.650542 99.9931 0.906235 126.934405-2.739186 26.946425 1.392633 103.95596-56.104679 114.748867-39.244604 7.183324-44.364578 0.06144-63.528643 2.749426C623.748561 847.134964 576.547517 895.99488 540.953455 895.99488L443.208024 880.517197z"  horiz-adv-x="1024" />

    
    <glyph glyph-name="xinxi4" unicode="&#58912;" d="M46.998659-31.697904a43.350032 43.350032 0 0 0-43.350031 43.350031V752.70647a43.350032 43.350032 0 0 0 43.350031 43.350032h931.577733a43.350032 43.350032 0 0 0 43.350031-43.350032v-566.59214a43.350032 43.350032 0 0 0-43.350031-43.350032H340.854075L69.836901-25.1954c-6.98658-4.335003-14.905186-6.502505-22.838242-6.502504z m43.350032 741.054342v-619.840429l215.326833 133.438623a43.306682 43.306682 0 0 0 22.838242 6.502505h606.712594V709.356438H90.348691zM252.586185 462.774233m-54.41874 0a54.41874 54.41874 0 1 1 108.83748 0 54.41874 54.41874 0 1 1-108.83748 0ZM515.771453 462.774233m-54.41874 0a54.41874 54.41874 0 1 1 108.83748 0 54.41874 54.41874 0 1 1-108.83748 0ZM778.956721 462.774233m-54.41874 0a54.41874 54.41874 0 1 1 108.837479 0 54.41874 54.41874 0 1 1-108.837479 0Z"  horiz-adv-x="1024" />

    
    <glyph glyph-name="denglu2" unicode="&#58898;" d="M925.072 29.662c-22.55 58.665-54.879 111.396-96.079 156.727-41.419 45.572-89.732 81.389-143.598 106.458-40.391 19.283-87.316 32.736-136.725 37.799 128.841-11.701 150.361 4.63 169.686 23.955 56.076 56.076 86.959 130.633 86.959 209.936s-30.881 153.86-86.959 209.936-130.634 86.959-209.937 86.959-153.86-30.883-209.937-86.959c-56.076-56.078-86.959-130.633-86.959-209.936s30.883-153.86 86.959-209.936c19.325-19.325 40.846-35.655 63.997-48.763-47.794-18.109-89.037-42.522-125.227-72.777 40.324 34.718-7.989-1.098-49.408-46.672-41.202-45.332-75.248-97.431-96.080-156.727-17.385-49.481-15.568-98.351-16.45-121.174h69.838c-2.304 162.997 152.688 353.823 363.268 353.823 210.579 0 369.644-197.809 370.256-353.823h69.837c-1.243 44.114-0.159 60.62-23.438 121.174zM281.379 564.538c0 125.188 101.85 227.038 227.039 227.038 125.188 0 227.039-101.85 227.039-227.038s-101.851-227.038-227.039-227.038c-125.189 0-227.039 101.85-227.039 227.038z"  horiz-adv-x="1024" />

    
    <glyph glyph-name="faxian" unicode="&#59206;" d="M755.2 660.48c-10.24-2.56-240.64-94.72-335.36-186.88-92.16-92.16-181.76-325.12-186.88-335.36-2.56-10.24-2.56-20.48 5.12-28.16 5.12-5.12 10.24-7.68 17.92-7.68 2.56 0 5.12 0 10.24 2.56 10.24 2.56 240.64 94.72 335.36 186.88 92.16 92.16 181.76 325.12 186.88 335.36 2.56 10.24 2.56 20.48-5.12 28.16-7.68 7.68-17.92 10.24-28.16 5.12z m-189.44-330.24c-58.88-58.88-186.88-120.32-261.12-151.04 33.28 74.24 92.16 202.24 151.04 261.12 58.88 58.88 186.88 120.32 261.12 151.04-30.72-74.24-92.16-202.24-151.04-261.12zM512 384m-51.2 0a51.2 51.2 0 1 1 102.4 0 51.2 51.2 0 1 1-102.4 0ZM512 896C230.4 896 0 665.6 0 384s230.4-512 512-512c107.52 0 209.92 33.28 296.96 94.72 10.24 7.68 15.36 23.04 5.12 35.84-7.68 10.24-23.04 15.36-35.84 5.12-76.8-53.76-168.96-84.48-266.24-84.48-253.44 0-460.8 207.36-460.8 460.8S258.56 844.8 512 844.8s460.8-207.36 460.8-460.8c0-97.28-30.72-189.44-87.04-268.8-7.68-10.24-5.12-28.16 5.12-35.84 10.24-7.68 28.16-5.12 35.84 5.12C990.72 174.08 1024 276.48 1024 384 1024 665.6 793.6 896 512 896z"  horiz-adv-x="1024" />

    
    <glyph glyph-name="xiangqingjieshao" unicode="&#59227;" d="M768 657.066667h-512c-17.066667 0-30.72-13.653333-30.72-30.72s13.653333-30.72 30.72-30.72h512c17.066667 0 30.72 13.653333 30.72 30.72s-13.653333 30.72-30.72 30.72zM768 445.44h-512c-17.066667 0-30.72-13.653333-30.72-30.72s13.653333-30.72 30.72-30.72h512c17.066667 0 30.72 13.653333 30.72 30.72s-13.653333 30.72-30.72 30.72zM897.706667 896H126.293333C88.746667 896 61.44 865.28 61.44 824.32v-880.64C61.44-97.28 88.746667-128 126.293333-128H573.44c23.893333 0 44.373333 13.653333 54.613333 30.72 0 0 3.413333 0 3.413334 3.413333l307.2 310.613334c13.653333 10.24 20.48 27.306667 20.48 47.786666V824.32C962.56 865.28 931.84 896 897.706667 896z m-259.413334-904.533333v143.36c0 34.133333 27.306667 61.44 64.853334 61.44h139.946666l-204.8-204.8z m266.24 273.066666c0-3.413333-3.413333-6.826667-6.826666-6.826666h-191.146667c-68.266667 0-122.88-54.613333-122.88-119.466667v-201.386667c0-3.413333-3.413333-6.826667-6.826667-6.826666H126.293333s-6.826667 6.826667-6.826666 13.653333V824.32c0 10.24 6.826667 13.653333 6.826666 13.653333h771.413334s6.826667-6.826667 6.826666-13.653333v-559.786667z"  horiz-adv-x="1024" />

    
    <glyph glyph-name="xinxi1" unicode="&#59197;" d="M709.653 669.227h-395.307l-279.467-279.467 279.467-280h121.387v-104.32l152.747 104.32h121.173l279.467 280-279.467 279.467zM351.040 363.307l-27.52-27.52h-38.933l-27.52 27.52v38.827l27.52 27.52h38.933l27.52-27.52v-38.827zM561.493 365.547l-27.52-27.52h-38.933l-27.52 27.52v38.933l27.52 27.52h38.933l27.52-27.52v-38.933zM732.373 338.027h-38.933l-27.52 27.52v38.933l27.52 27.52h38.933l27.52-27.52v-38.933l-27.52-27.52z"  horiz-adv-x="1024" />

    
    <glyph glyph-name="gengduo11" unicode="&#58925;" d="M685.20732 479.960449L320.263939 876.749339a61.847868 61.847868 0 0 1-89.597492 0 61.847868 61.847868 0 0 1 0-89.597491l364.840985-396.78889c6.348622-6.348622 6.348622-12.799642 0-12.799642L224.317825-19.225574a61.847868 61.847868 0 0 1 0-89.495094C243.670883-121.622707 256.368128-127.971329 269.167769-127.971329a58.059174 58.059174 0 0 1 44.849945 19.250661l364.738587 396.686493a123.900531 123.900531 0 0 1 6.451019 191.994624z"  horiz-adv-x="1024" />

    
    <glyph glyph-name="gouwuche" unicode="&#58905;" d="M938.666667 184.888889H334.222222a21.333333 21.333333 0 0 0-20.565333 15.658667L168.647111 725.333333H56.888889a21.333333 21.333333 0 1 0 0 42.666667h128a21.333333 21.333333 0 0 0 20.565333-15.658667L350.464 227.555556H938.666667a21.333333 21.333333 0 0 0 0-42.666667zM974.222222 696.888889h-668.444444l56.888889-142.222222h554.666666zM860.444444 284.444444h-440.888888a21.333333 21.333333 0 0 0-20.451556 15.274667l-113.777778 384A21.333333 21.333333 0 0 0 305.777778 711.111111h668.444444a21.376 21.376 0 0 0 20.451556-27.406222l-113.777778-384A21.333333 21.333333 0 0 0 860.444444 284.444444z m-424.96 42.666667h409.031112l101.134222 341.333333H334.350222l101.134222-341.333333zM465.777778 35.555556m-71.111111 0a71.111111 71.111111 0 1 1 142.222222 0 71.111111 71.111111 0 1 1-142.222222 0ZM465.777778-56.888889c-50.972444 0-92.444444 41.472-92.444445 92.444445s41.472 92.444444 92.444445 92.444444 92.444444-41.472 92.444444-92.444444-41.472-92.444444-92.444444-92.444445z m0 142.222222c-27.448889 0-49.777778-22.328889-49.777778-49.777777s22.328889-49.777778 49.777778-49.777778 49.777778 22.328889 49.777778 49.777778-22.328889 49.777778-49.777778 49.777777zM835.555556 35.555556m-71.111112 0a71.111111 71.111111 0 1 1 142.222223 0 71.111111 71.111111 0 1 1-142.222223 0ZM835.555556-56.888889c-50.972444 0-92.444444 41.472-92.444445 92.444445s41.472 92.444444 92.444445 92.444444 92.444444-41.472 92.444444-92.444444-41.472-92.444444-92.444444-92.444445z m0 142.222222c-27.448889 0-49.777778-22.328889-49.777778-49.777777s22.328889-49.777778 49.777778-49.777778 49.777778 22.328889 49.777777 49.777778-22.328889 49.777778-49.777777 49.777777z"  horiz-adv-x="1024" />

    
    <glyph glyph-name="faxian1" unicode="&#59002;" d="M511.8194 830.261728C264.397884 830.261728 62.848677 628.712522 62.848677 381.291005s201.549206-448.970723 448.970723-448.970723S960.790123 133.869489 960.790123 381.291005 759.602116 830.261728 511.8194 830.261728z m0-861.821516c-227.555556 0-412.850794 185.295238-412.850793 412.850793S284.263845 794.141799 511.8194 794.141799 924.670194 608.846561 924.670194 381.291005s-184.934039-412.850794-412.850794-412.850793zM261.869489 131.341093l300.879012 199.382011L762.130511 631.240917l-300.879012-199.38201-199.38201-300.517814z m218.886772 281.013052c17.337566 17.337566 44.788713 17.337566 62.126279 0 17.337566-16.976367 17.337566-44.788713 0-62.126279-17.337566-17.337566-44.788713-17.337566-62.126279 0-16.976367 17.337566-16.976367 45.149912 0 62.126279z"  horiz-adv-x="1024" />

    
    <glyph glyph-name="denglu3" unicode="&#58897;" d="M512 853.333333C251.733333 853.333333 42.666667 644.266667 42.666667 384c0-147.2 68.266667-279.466667 172.8-364.8C296.533333-46.933333 398.933333-85.333333 512-85.333333s215.466667 38.4 296.533333 104.533333c106.666667 85.333333 172.8 217.6 172.8 364.8 0 260.266667-209.066667 469.333333-469.333333 469.333333z m0-896c-93.866667 0-179.2 29.866667-249.6 81.066667C290.133333 151.466667 392.533333 234.666667 512 234.666667s221.866667-83.2 249.6-196.266667C691.2-12.8 605.866667-42.666667 512-42.666667z m-170.666667 490.666667c0 93.866667 76.8 170.666667 170.666667 170.666667s170.666667-76.8 170.666667-170.666667-76.8-170.666667-170.666667-170.666667-170.666667 76.8-170.666667 170.666667z m454.4-381.866667c-27.733333 89.6-96 162.133333-183.466666 192 68.266667 36.266667 113.066667 106.666667 113.066666 187.733334 0 117.333333-96 213.333333-213.333333 213.333333s-213.333333-96-213.333333-213.333333c0-81.066667 44.8-151.466667 113.066666-187.733334-87.466667-32-155.733333-102.4-183.466666-192C140.8 145.066667 85.333333 258.133333 85.333333 384 85.333333 618.666667 277.333333 810.666667 512 810.666667s426.666667-192 426.666667-426.666667c0-125.866667-55.466667-238.933333-142.933334-317.866667z"  horiz-adv-x="1024" />

    
    <glyph glyph-name="sousuo1x" unicode="&#58923;" d="M517.12-10.24c-230.4 0-419.84 194.56-419.84 435.2s189.44 435.2 419.84 435.2 419.84-194.56 419.84-435.2S750.08-10.24 517.12-10.24zM517.12 806.4c-202.24 0-368.64-171.52-368.64-384 0-212.48 166.4-384 368.64-384 202.24 0 368.64 171.52 368.64 384C885.76 634.88 721.92 806.4 517.12 806.4zM921.6-76.8c-7.68 0-12.8 2.56-17.92 7.68l-148.48 153.6c-10.24 10.24-10.24 25.6 0 35.84 10.24 10.24 25.6 10.24 35.84 0l148.48-153.6c10.24-10.24 10.24-25.6 0-35.84C934.4-74.24 926.72-76.8 921.6-76.8z"  horiz-adv-x="1024" />

    
    <glyph glyph-name="gouwuche2" unicode="&#58915;" d="M349.365-45.176c54.212 0 90.353 42.165 90.353 96.376s-42.165 96.376-90.353 96.376c-54.212 0-90.353-42.165-90.353-96.376s42.165-96.376 90.353-96.376zM349.365 15.059c-18.071 0-30.118 12.047-30.118 36.141 0 18.071 12.047 36.141 30.118 36.141s30.118-12.047 30.118-36.141c6.024-18.071-12.047-36.141-30.118-36.141zM698.729-45.176c54.212 0 90.353 42.165 90.353 96.376s-42.165 96.376-90.353 96.376c-54.212 0-90.353-42.165-90.353-96.376s42.165-96.376 90.353-96.376zM698.729 15.059c-18.071 0-30.118 12.047-30.118 36.141 0 18.071 12.047 36.141 30.118 36.141s30.118-12.047 30.118-36.141c6.024-18.071-12.047-36.141-30.118-36.141zM42.165 755.953h48.188c18.071 0 42.165-18.071 42.165-36.141l114.447-548.141c12.047-48.188 54.212-84.329 102.4-84.329h463.812v60.235h-463.812c-18.071 0-36.141 18.071-42.165 36.141l-114.447 548.141c-12.047 48.188-54.212 84.329-102.4 84.329h-48.188v-60.235zM265.035 304.188v-60.235h572.235l126.494 246.965c42.165 78.306-6.024 150.588-96.376 150.588h-674.635v-60.235h674.635c42.165 0 60.235-24.094 42.165-66.259l-108.424-210.824h-536.094z"  horiz-adv-x="1024" />

    
    <glyph glyph-name="ziyuan" unicode="&#58913;" d="M200.807 552.219c-0-0.005-0-0.011-0-0.018 0-171.36 138.915-310.275 310.275-310.275 171.36 0 310.275 138.915 310.275 310.275 0 0.006-0 0.012-0 0.019 0 0.004 0 0.010 0 0.017 0 171.36-138.915 310.275-310.275 310.275-171.36 0-310.275-138.915-310.275-310.275 0-0.006 0-0.012 0-0.019zM511.082 207.519c-189.865-0-343.781 153.916-343.781 343.781s153.916 343.781 343.781 343.781c189.865 0 343.781-153.916 343.781-343.781-0.261-189.76-154.021-343.521-343.757-343.781zM511.082 828.529c-152.095 0-275.392-123.297-275.392-275.392s123.297-275.392 275.392-275.392c152.095 0 275.392 123.297 275.392 275.392 0 0.136 0 0.298 0 0.459 0 152.095-123.297 275.392-275.392 275.392-0 0-0-0-0-0zM69.078-128h-3.213c-17.128 1.632-30.419 15.946-30.419 33.363 0 1.020 0.046 2.029 0.135 3.025 14.571 188.883 136.192 346.219 303.772 412.341-1.702-0.957 2.082-0.276 6.024-0.276 18.505 0 33.506-15.001 33.506-33.506 0-12.61-6.966-23.593-17.26-29.311-147.34-59.813-251.023-197.881-259.872-361.172-1.309-11.144-15.439-24.312-32.677-24.464zM953.546-128c-17.252 0.162-31.376 13.337-33.038 30.173-11.175 122.795-74.459 228.759-167.25 296.894 4.415-2.304 0.187 6.596 0.187 16.484 0 18.749 15.199 33.947 33.947 33.947 8.861 0 16.928-3.395 22.974-8.954 104.162-82.818 172.266-207.178 179.080-347.627-0.938 14.475-0.892 13.466-0.892 12.446 0-17.418-13.29-31.731-30.283-33.353z"  horiz-adv-x="1024" />

    
    <glyph glyph-name="gengduo2" unicode="&#58922;" d="M512 384m-480 0a480 480 0 1 1 960 0 480 480 0 1 1-960 0ZM249.6 601.6c0 25.6 19.2 44.8 44.8 44.8h166.4c32 0 51.2-19.2 51.2-44.8v-166.4c0-32-19.2-51.2-44.8-51.2H294.4c-25.6 0-44.8 19.2-44.8 44.8V601.6zM556.8 550.4c0 25.6 19.2 51.2 44.8 51.2h121.6c25.6 0 51.2-19.2 51.2-51.2v-121.6c0-25.6-19.2-51.2-51.2-51.2H601.6c-25.6 0-44.8 25.6-44.8 51.2V550.4zM556.8 288c0 25.6 19.2 51.2 51.2 51.2h121.6c25.6 0 51.2-19.2 51.2-44.8v-64l-108.8-108.8h-64c-25.6 0-44.8 19.2-44.8 51.2V288zM665.6 179.2c0 25.6 19.2 44.8 44.8 44.8h64l-108.8-108.8v64zM294.4 294.4c0 25.6 19.2 51.2 51.2 51.2h121.6c25.6-6.4 44.8-25.6 44.8-51.2v-121.6c0-25.6-19.2-51.2-51.2-51.2H339.2c-25.6 0-51.2 19.2-51.2 51.2V294.4zM294.4 601.6h166.4V576H294.4zM294.4 550.4h96v-25.6H294.4z"  horiz-adv-x="1024" />

    
    <glyph glyph-name="gengduo3" unicode="&#58881;" d="M492.675886-8.817574L885.696074 384.202615 492.675886 777.222803c-12.258185 12.258185-12.432147 32.892131 0.187265 45.51052 12.707416 12.707416 32.995485 12.703323 45.511543 0.187265l411.660734-411.660734c7.120165-7.120165 10.163477-17.065677 8.990768-26.624381 1.500167-9.755178-1.5104-20.010753-8.990768-27.491121L538.374694-54.515359c-12.258185-12.258185-32.892131-12.432147-45.511543 0.187265-12.707416 12.707416-12.703323 32.995485-0.187265 45.51052z"  horiz-adv-x="1024" />

    
    <glyph glyph-name="sousuo5" unicode="&#58951;" d="M891.667692 50.018462l-45.686154-45.686154c-6.301538-6.301538-16.541538-6.301538-22.843076 0L707.347692 120.123077c-6.301538 6.301538-6.301538 16.541538 0 22.843077l45.686154 45.686154c6.301538 6.301538 16.541538 6.301538 22.843077 0l115.790769-115.79077c6.301538-6.301538 6.301538-16.541538 0-22.843076zM834.166154-31.901538c-11.815385 0-24.418462 4.726154-33.870769 14.178461l-115.79077 115.790769c-8.664615 8.664615-14.178462 21.267692-14.178461 33.87077 0 12.603077 4.726154 24.418462 14.178461 33.870769l45.686154 45.686154c8.664615 8.664615 21.267692 14.178462 33.870769 14.178461 12.603077 0 24.418462-4.726154 33.87077-14.178461l115.790769-115.79077c18.904615-18.904615 18.904615-48.836923 0-66.953846l-45.686154-45.686154c-9.452308-10.24-21.267692-14.966154-33.870769-14.966153zM740.430769 131.938462l94.523077-94.523077 24.418462 24.418461L764.061538 155.569231l-23.630769-23.630769z m151.236923-81.92zM865.673846-5.907692c-9.452308 0-18.904615 3.938462-25.993846 11.027692l-196.923077 196.923077c-14.178462 14.178462-14.178462 37.021538 0 51.2 14.178462 14.178462 37.021538 14.178462 51.2 0l196.923077-196.923077c7.089231-7.089231 11.027692-15.753846 11.027692-25.993846 0-9.452308-3.938462-18.904615-11.027692-25.993846-6.301538-6.301538-15.753846-10.24-25.206154-10.24zM442.683077 106.732308c-92.947692 0-179.593846 36.233846-244.972308 101.612307S96.098462 361.156923 96.098462 453.316923s36.233846 179.593846 101.612307 244.972308 152.812308 101.612308 244.972308 101.612307S622.276923 763.667692 687.655385 698.289231s101.612308-152.812308 101.612307-244.972308S753.033846 273.723077 687.655385 208.344615s-152.812308-101.612308-244.972308-101.612307z m0 630.153846c-75.618462 0-147.298462-29.144615-200.861539-82.707692-53.563077-53.563077-82.707692-124.455385-82.707692-200.861539s29.144615-147.298462 82.707692-200.861538c53.563077-53.563077 124.455385-82.707692 200.861539-82.707693s147.298462 29.144615 200.861538 82.707693c53.563077 53.563077 82.707692 124.455385 82.707693 200.861538s-29.144615 147.298462-82.707693 200.861539c-54.350769 53.563077-125.243077 82.707692-200.861538 82.707692zM229.490701 397.733543a78.769231 78.769231 0 1 1 111.39457 111.398459 78.769231 78.769231 0 1 1-111.39457-111.398459Z"  horiz-adv-x="1024" />

    
    <glyph glyph-name="sousuo6" unicode="&#58929;" d="M460.8 98.133333c-81.066667 0-162.133333 29.866667-226.133333 93.866667-59.733333 59.733333-93.866667 140.8-93.866667 226.133333s34.133333 166.4 93.866667 226.133334C358.4 768 563.2 768 686.933333 644.266667c123.733333-123.733333 123.733333-328.533333 0-452.266667-59.733333-59.733333-145.066667-93.866667-226.133333-93.866667z m0 597.333334c-72.533333 0-140.8-25.6-196.266667-81.066667a273.92 273.92 0 0 1-81.066666-196.266667c0-72.533333 29.866667-145.066667 81.066666-196.266666 106.666667-106.666667 285.866667-106.666667 392.533334 0 106.666667 106.666667 106.666667 285.866667 0 392.533333-51.2 55.466667-123.733333 81.066667-196.266667 81.066667zM861.866667 29.866667c-4.266667 0-12.8 0-17.066667 4.266666l-170.666667 170.666667c-8.533333 8.533333-8.533333 21.333333 0 29.866667s21.333333 8.533333 29.866667 0l170.666667-170.666667c8.533333-8.533333 8.533333-21.333333 0-29.866667-4.266667-4.266667-8.533333-4.266667-12.8-4.266666z"  horiz-adv-x="1024" />

    
    <glyph glyph-name="qicheqianlian-" unicode="&#58917;" d="M908.629 152.235h-650.752c-19.285 0-37.376 7.509-50.859 21.163-13.483 13.653-20.992 31.573-20.821 50.859l2.389 479.232c0 19.115-6.656 31.915-39.765 37.205h-0.171l-95.573 16.384c-9.216 1.536-15.531 10.411-13.995 19.627 1.536 9.216 10.411 15.531 19.627 13.995l95.403-16.384c45.397-7.168 68.437-31.061 68.437-70.997l-2.389-479.403c0-10.069 3.755-19.456 10.923-26.453 7.168-7.168 16.555-11.093 26.624-11.093h650.752c9.387 0 17.067-7.68 17.067-17.067s-7.509-17.067-16.896-17.067zM859.989 250.197l-602.624 1.877c-18.944 0.171-36.693 7.509-50.005 20.992s-20.48 31.232-20.48 50.176l1.877 353.963 681.813-50.859c30.891-1.195 55.125-26.283 55.125-57.173v-253.44c0-36.181-29.525-65.536-65.707-65.536zM257.707 286.208l602.453-1.877c17.408 0 31.573 14.165 31.573 31.403v253.44c0 12.459-9.899 22.699-22.357 23.040h-0.683l-645.632 48.128-1.536-317.44c0-9.728 3.755-18.944 10.581-25.941 6.485-6.827 15.701-10.752 25.6-10.752zM260.437 95.915c0-35.158 28.501-63.659 63.659-63.659s63.659 28.501 63.659 63.659c0 0 0 0 0 0 0 35.158-28.501 63.659-63.659 63.659-35.158 0-63.659-28.501-63.659-63.659 0-0 0-0 0-0zM324.096 15.189c-44.544 0-80.725 36.181-80.725 80.725s36.181 80.725 80.725 80.725c44.544 0 80.725-36.181 80.725-80.725s-36.181-80.725-80.725-80.725zM324.096 142.507c-25.771 0-46.592-20.821-46.592-46.592s20.821-46.592 46.592-46.592 46.592 20.821 46.592 46.592-20.821 46.592-46.592 46.592zM749.056 95.915c-0-0.002-0-0.005-0-0.008 0-35.158 28.501-63.659 63.659-63.659 35.158 0 63.659 28.501 63.659 63.659 0 0.003-0 0.006-0 0.008 0 0.002 0 0.005 0 0.008 0 35.158-28.501 63.659-63.659 63.659-35.158 0-63.659-28.501-63.659-63.659 0-0.003 0-0.006 0-0.008zM812.715 15.189c-44.544 0-80.725 36.181-80.725 80.725s36.181 80.725 80.725 80.725 80.725-36.181 80.725-80.725-36.181-80.725-80.725-80.725zM812.715 142.507c-25.771 0-46.592-20.821-46.592-46.592s20.821-46.592 46.592-46.592 46.592 20.821 46.592 46.592-20.821 46.592-46.592 46.592zM710.315 478.037h-347.819c-9.387 0-17.067 7.68-17.067 17.067s7.68 17.067 17.067 17.067h347.819c9.387 0 17.067-7.68 17.067-17.067s-7.68-17.067-17.067-17.067zM710.315 379.904h-347.819c-9.387 0-17.067 7.68-17.067 17.067s7.68 17.067 17.067 17.067h347.819c9.387 0 17.067-7.68 17.067-17.067s-7.68-17.067-17.067-17.067z"  horiz-adv-x="1024" />

    
    <glyph glyph-name="web-icon-" unicode="&#59102;" d="M497.248 79.84a336.192 336.192 0 0 0-238.496 98.816A336.16 336.16 0 0 0 160 417.152a336.192 336.192 0 0 0 98.784 238.496 336.32 336.32 0 0 0 238.496 98.816 335.936 335.936 0 0 0 238.464-98.816 336.192 336.192 0 0 0 98.816-238.496 336.192 336.192 0 0 0-98.816-238.496 334.944 334.944 0 0 0-111.584-74.08 335.616 335.616 0 0 0-126.912-24.736z m0.032 624.384c-76.672 0-148.8-29.856-203.04-84.096-111.904-111.936-111.904-294.08 0-406.016a285.216 285.216 0 0 1 203.008-84.096 285.216 285.216 0 0 1 203.008 84.096 285.248 285.248 0 0 1 84.128 203.008 285.12 285.12 0 0 1-84.128 202.976 284.992 284.992 0 0 1-202.976 84.128zM838.912 13.568a24.96 24.96 0 0 0-17.728 7.36l-138.976 138.976a25.12 25.12 0 0 0 35.488 35.488l138.976-138.976a25.12 25.12 0 0 0-17.76-42.848z"  horiz-adv-x="1024" />

    
    <glyph glyph-name="gengduo4" unicode="&#58884;" d="M417.28 407.04h-106.24c-37.12 0-67.84 30.72-67.84 67.84v106.24c0 37.12 30.72 67.84 67.84 67.84h106.24c37.12 0 67.84-30.72 67.84-67.84v-106.24c0-37.12-30.72-67.84-67.84-67.84z m-106.24 203.52c-16.64 0-29.44-12.8-29.44-29.44v-106.24c0-16.64 12.8-29.44 29.44-29.44h106.24c16.64 0 29.44 12.8 29.44 29.44v106.24c0 16.64-12.8 29.44-29.44 29.44h-106.24zM417.28 119.04h-106.24c-37.12 0-67.84 30.72-67.84 67.84v106.24c0 37.12 30.72 67.84 67.84 67.84h106.24c37.12 0 67.84-30.72 67.84-67.84v-106.24c0-37.12-30.72-67.84-67.84-67.84z m-106.24 203.52c-16.64 0-29.44-12.8-29.44-29.44v-106.24c0-16.64 12.8-29.44 29.44-29.44h106.24c16.64 0 29.44 12.8 29.44 29.44v106.24c0 16.64-12.8 29.44-29.44 29.44h-106.24zM712.96 407.04h-106.24c-37.12 0-67.84 30.72-67.84 67.84v106.24c0 37.12 30.72 67.84 67.84 67.84h106.24c37.12 0 67.84-30.72 67.84-67.84v-106.24c0-37.12-30.72-67.84-67.84-67.84z m-106.24 203.52c-16.64 0-29.44-12.8-29.44-29.44v-106.24c0-16.64 12.8-29.44 29.44-29.44h106.24c16.64 0 29.44 12.8 29.44 29.44v106.24c0 16.64-12.8 29.44-29.44 29.44h-106.24zM678.4 119.04h-37.12c-56.32 0-102.4 46.08-102.4 102.4v37.12c0 56.32 46.08 102.4 102.4 102.4H678.4c56.32 0 102.4-46.08 102.4-102.4v-37.12c0-56.32-46.08-102.4-102.4-102.4z m-37.12 203.52c-35.84 0-64-28.16-64-64v-37.12c0-35.84 28.16-64 64-64H678.4c35.84 0 64 28.16 64 64v37.12c0 35.84-28.16 64-64 64h-37.12z"  horiz-adv-x="1024" />

    
    <glyph glyph-name="gengduo5" unicode="&#58921;" d="M512.4-124c-281.6 0-510 228.4-510 510S230.8 896 512.4 896s510-228.4 510-510-228.4-510-510-510z m0 1002.4C240.4 878.4 20 658 20 386s220.4-492.4 492.4-492.4S1004.8 114 1004.8 386 784.4 878.4 512.4 878.4zM740 367.8h-191.2v-191.2c0-15-12.2-27.4-27.4-27.4-15 0-27.4 12.2-27.4 27.4v191.2h-191.2c-15 0-27.4 12.2-27.4 27.4 0 15 12.2 27.4 27.4 27.4H494v191.2c0 15 12.2 27.4 27.4 27.4 15 0 27.4-12.2 27.4-27.4v-191.2H740c15 0 27.4-12.2 27.4-27.4s-12.2-27.4-27.4-27.4z"  horiz-adv-x="1024" />

    
    <glyph glyph-name="xinxi6" unicode="&#58919;" d="M284.444444 509.155556C241.208889 509.155556 204.8 472.746667 204.8 429.511111s36.408889-79.644444 79.644444-79.644444 79.644444 36.408889 79.644445 79.644444-36.408889 79.644444-79.644445 79.644445z m227.555556 0c-43.235556 0-79.644444-36.408889-79.644444-79.644445s36.408889-79.644444 79.644444-79.644444 79.644444 36.408889 79.644444 79.644444-36.408889 79.644444-79.644444 79.644445z m182.044444 386.844444h-364.088888C147.911111 896 0 748.088889 0 566.044444v-252.586666c0-182.044444 147.911111-329.955556 329.955556-329.955556h61.44c31.857778 0 70.542222-109.226667 111.502222-109.226666 38.684444 0 77.368889 109.226667 109.226666 109.226666h79.644445c182.044444 0 329.955556 147.911111 329.955555 329.955556V566.044444C1024 748.088889 876.088889 896 694.044444 896z m298.097778-568.888889c0-168.391111-138.808889-304.924444-309.475555-304.924444h-75.093334c-31.857778 0-65.991111-102.4-102.4-102.4s-75.093333 102.4-104.675555 102.4H341.333333c-170.666667 0-309.475556 136.533333-309.475555 304.924444V559.217778C31.857778 727.608889 170.666667 864.142222 341.333333 864.142222h341.333334c170.666667 0 309.475556-136.533333 309.475555-304.924444V327.111111z m-252.586666 182.044445c-43.235556 0-79.644444-36.408889-79.644445-79.644445s36.408889-79.644444 79.644445-79.644444 79.644444 36.408889 79.644444 79.644444-36.408889 79.644444-79.644444 79.644445z"  horiz-adv-x="1024" />

    
    <glyph glyph-name="fanhui4" unicode="&#58930;" d="M511.9984-128c-282.303118 0-511.9984 229.695282-511.9984 511.9984s229.695282 511.9984 511.9984 511.9984a507.518414 507.518414 0 0 0 369.342846-157.503508c10.943966-11.327965 53.119834-57.023822 64.319799-71.295777a24.383924 24.383924 0 0 0-38.39988-30.015906 1741.626557 1741.626557 0 0 1-60.99181 67.519789A459.518564 459.518564 0 0 1 511.9984 847.228952C256.575198 847.228952 48.767848 639.421602 48.767848 383.9984S256.575198-79.232152 511.9984-79.232152 975.228952 128.575198 975.228952 383.9984A24.319924 24.319924 0 1 0 1023.9968 383.9984c0-282.303118-229.695282-511.9984-511.9984-511.9984zM917.949131 603.453714h-186.495417a24.319924 24.319924 0 1 0 0 48.767848h186.495417c4.671985 0 8.575973 3.839988 8.575974 8.511973V847.228952a24.319924 24.319924 0 1 0 48.767847 0v-186.559417a57.407821 57.407821 0 0 0-57.343821-57.215821z"  horiz-adv-x="1024" />

    
    <glyph glyph-name="gengduo6" unicode="&#58903;" d="M257.22 81.47a36.46 36.46 0 0 0-25.78 62.24L471.73 384 231.44 624.29A36.46 36.46 0 0 0 283 675.85l246.77-246.73a63.83 63.83 0 0 0 0-90.2L283 92.15a36.35 36.35 0 0 0-25.78-10.68zM512 81.47a36.46 36.46 0 0 0-25.78 62.24L726.47 384 486.18 624.29a36.46 36.46 0 0 0 51.56 51.56l246.77-246.73a63.66 63.66 0 0 0 0-90.2L537.75 92.15A36.35 36.35 0 0 0 512 81.47z"  horiz-adv-x="1024" />

    
    <glyph glyph-name="sousuo" unicode="&#58906;" d="M273.066667 710.4c-12.8-4.266667-23.466667-10.666667-34.133334-19.2-10.666667-6.4-21.333333-14.933333-29.866666-23.466667-8.533333-8.533333-17.066667-19.2-23.466667-29.866666-6.4-10.666667-12.8-21.333333-19.2-34.133334-4.266667-8.533333 0-19.2 8.533333-21.333333 8.533333-4.266667 19.2 0 21.333334 8.533333 4.266667 10.666667 8.533333 19.2 14.933333 27.733334 6.4 8.533333 12.8 17.066667 19.2 23.466666 8.533333 8.533333 14.933333 14.933333 25.6 21.333334 8.533333 6.4 19.2 10.666667 27.733333 14.933333 8.533333 4.266667 12.8 12.8 8.533334 21.333333 0 8.533333-10.666667 12.8-19.2 10.666667zM725.333333 394.666667c-8.533333 0-17.066667-8.533333-17.066666-17.066667 0-21.333333-4.266667-42.666667-12.8-64-8.533333-19.2-19.2-36.266667-36.266667-53.333333-14.933333-17.066667-34.133333-27.733333-53.333333-36.266667-19.2-8.533333-40.533333-12.8-64-12.8-8.533333 0-17.066667-8.533333-17.066667-17.066667s6.4-17.066667 17.066667-17.066666c25.6 0 51.2 4.266667 76.8 14.933333 23.466667 10.666667 44.8 23.466667 64 42.666667 19.2 19.2 34.133333 40.533333 42.666666 64 10.666667 23.466667 14.933333 51.2 14.933334 76.8 2.133333 10.666667-6.4 19.2-14.933334 19.2zM443.733333 881.066667c-234.666667 0-426.666667-192-426.666666-426.666667s192-426.666667 426.666666-426.666667 426.666667 192 426.666667 426.666667c0 236.8-192 426.666667-426.666667 426.666667z m0-808.533334c-211.2 0-381.866667 170.666667-381.866666 381.866667 0 211.2 170.666667 381.866667 381.866666 381.866667 211.2 0 381.866667-170.666667 381.866667-381.866667 0-209.066667-170.666667-381.866667-381.866667-381.866667z m544-74.666666l-119.466666 123.733333c-12.8 12.8-27.733333 19.2-44.8 19.2s-32-6.4-44.8-19.2c-25.6-25.6-25.6-66.133333 0-91.733333l119.466666-123.733334c12.8-12.8 27.733333-19.2 44.8-19.2s32 6.4 44.8 19.2c25.6 25.6 25.6 66.133333 0 91.733334zM960-64c-6.4-6.4-10.666667-6.4-14.933333-6.4s-8.533333 0-14.933334 6.4L810.666667 59.733333c-8.533333 8.533333-8.533333 23.466667 0 29.866667 6.4 6.4 10.666667 6.4 14.933333 6.4 4.266667 0 8.533333 0 14.933333-6.4l119.466667-123.733333c6.4-6.4 6.4-12.8 6.4-14.933334-2.133333-2.133333-2.133333-8.533333-6.4-14.933333z"  horiz-adv-x="1024" />

    
    <glyph glyph-name="xinxi7" unicode="&#58935;" d="M64 761.6h896c19.2 0 38.4-19.2 38.4-38.4v-684.8c0-19.2-19.2-38.4-38.4-38.4H64c-19.2 0-38.4 19.2-38.4 38.4V729.6c0 19.2 19.2 32 38.4 32z m857.6-102.4L524.8 262.4c-6.4-6.4-19.2-6.4-25.6 0L102.4 659.2v-576h819.2v576z m-32 32H134.4l377.6-384 377.6 384z"  horiz-adv-x="1024" />

    
    <glyph glyph-name="gouwuche1" unicode="&#58934;" d="M741 277.9H405.3c-8.9 0-16.1 7.2-16.1 16.1s7.2 16.1 16.1 16.1H741c15 0 28.5 11 33.4 27.3l52.8 174.8c4.1 13.7 1.7 28.4-6.5 39.5-6.8 9.2-16.4 14.2-26.9 14.2H582.9c-8.9 0-16.1 7.2-16.1 16.1s7.2 16.1 16.1 16.1h210.9c20.7 0 39.9-9.9 52.7-27.3 14.3-19.2 18.6-44.6 11.5-68L805.2 328c-9-29.9-34.8-50.1-64.2-50.1zM486.8 598.2h-65.3v65.3c0 8.9-7.2 16.1-16.1 16.1s-16.1-7.2-16.1-16.1v-65.3H324c-8.9 0-16.1-7.2-16.1-16.1S315.1 566 324 566h65.3v-65.3c0-8.9 7.2-16.1 16.1-16.1s16.1 7.2 16.1 16.1V566h65.3c8.9 0 16.1 7.2 16.1 16.1s-7.2 16.1-16.1 16.1zM727.2 219.5H366.8c-22.8 0-43.1 22.2-49.5 54.1l-67.4 335.2c-8.2 40.8-37.3 69.3-70.8 69.3h-40.4c-8.9 0-16.1-7.2-16.1-16.1s7.2-16.1 16.1-16.1h40.4c17.9 0 34-17.9 39.2-43.4l67.4-335.2c5.1-25.5 17.3-46.9 33.4-61.1-19.5-13.5-32.3-36.1-32.3-61.6 0-41.3 33.6-74.9 74.9-74.9 41.3 0 74.9 33.6 74.9 74.9 0 15.8-5 30.6-13.4 42.7h242.6c-8.4-12.1-13.4-26.8-13.4-42.7 0-41.3 33.6-74.9 74.9-74.9s74.9 33.6 74.9 74.9-33.7 74.9-75 74.9zM361.7 102c-23.5 0-42.7 19.1-42.7 42.7s19.1 42.7 42.7 42.7 42.7-19.1 42.7-42.7-19.2-42.7-42.7-42.7z m365.5 0c-23.5 0-42.7 19.1-42.7 42.7s19.1 42.7 42.7 42.7 42.7-19.1 42.7-42.7-19.1-42.7-42.7-42.7z"  horiz-adv-x="1024" />

    
    <glyph glyph-name="xinxi8" unicode="&#59024;" d="M1024 384C1024 631.995733 794.7776 833.041067 512 833.041067S0 631.995733 0 384c0-128.597333 61.7472-244.497067 160.529067-326.3488a520.840533 520.840533 0 0 0-57.053867-60.7744c-21.7088-19.677867-9.710933-56.081067 19.438933-59.0336 17.117867-1.7408 34.5088-2.628267 52.087467-2.628267 99.857067 0 336.059733-0.256 336.9984-0.256h0.034133C794.794667-65.024 1024 136.004267 1024 384z m-512 51.2a51.2 51.2 0 1 0 0-102.4 51.2 51.2 0 0 0 0 102.4z m-274.1248 0a51.2 51.2 0 1 0 0-102.4 51.2 51.2 0 0 0 0 102.4z m548.2496-102.4a51.2 51.2 0 1 0 0 102.4 51.2 51.2 0 0 0 0-102.4z"  horiz-adv-x="1024" />

    
    <glyph glyph-name="gengduo7" unicode="&#58887;" d="M1000.727273 407.272727H535.272727V872.727273c0 13.963636-9.309091 23.272727-23.272727 23.272727s-23.272727-9.309091-23.272727-23.272727v-465.454546H23.272727c-13.963636 0-23.272727-9.309091-23.272727-23.272727s9.309091-23.272727 23.272727-23.272727h465.454546v-465.454546c0-13.963636 9.309091-23.272727 23.272727-23.272727s23.272727 9.309091 23.272727 23.272727V360.727273h465.454546c13.963636 0 23.272727 9.309091 23.272727 23.272727s-9.309091 23.272727-23.272727 23.272727z"  horiz-adv-x="1024" />

    
    <glyph glyph-name="gengduo8" unicode="&#59073;" d="M735.1 385.2L368.4 751.3l-96.7-96.8 268.6-268.6-268.6-268.8 96.7-96.7 366.7 364.8-11.3 0.7z"  horiz-adv-x="1024" />

    
    <glyph glyph-name="huiyuan" unicode="&#58949;" d="M663.9 748.7H362.1c-34.4 0-67.4-14-91.8-38.9L62.5 497c-19.3-19.8-19.3-51.9 0-71.7l404.1-413.7c25.6-26.2 67.2-26.2 92.8 0l404.1 413.7c19.3 19.8 19.3 51.9 0 71.7L755.6 709.8c-24.3 24.9-57.3 38.9-91.7 38.9zM62.5 497c-19.3-19.8-19.3-51.9 0-71.7l8.7-8.9c2.1 38.6 9.4 75.9 21.1 111.1L62.5 497zM963.5 497L861.3 601.6c34.9-61.5 54.8-132.6 54.8-208.3 0-5.6-0.1-11.2-0.3-16.8l47.7 48.8c19.3 19.8 19.3 51.9 0 71.7zM160 596.8l-67.7-69.3c-11.8-35.2-19-72.4-21.1-111.1l41.4-42.4c-1.4 12.8-2.1 25.9-2.1 39.1 0 67 18 129.7 49.5 183.7zM861.3 601.6L755.6 709.8c-24.3 24.9-57.3 38.9-91.8 38.9h-45C749 693 840.1 563.7 840.1 413.2c0-51.3-10.6-100.2-29.8-144.5l105.4 107.9c0.2 5.6 0.3 11.2 0.3 16.8 0.1 75.6-19.8 146.7-54.7 208.2zM427.8 51.3l38.8-39.7c25.6-26.2 67.2-26.2 92.8 0l68.3 69.9c-46.4-21.3-98-33.2-152.3-33.2-16.2 0-32 1-47.6 3zM618.8 748.7H362.1c-34.4 0-67.4-14-91.8-38.9L160 596.8c-31.5-53.9-49.5-116.7-49.5-183.7 0-13.2 0.7-26.2 2.1-39.1l64.3-65.8c-17 38.1-26.4 80.3-26.4 124.8 0 169.5 137.4 306.9 306.9 306.9S764.3 602.5 764.3 433s-137.5-306.9-307-306.9c-47 0-91.5 10.6-131.3 29.4l101.8-104.2c15.6-2 31.4-3.1 47.5-3.1 54.4 0 106 11.9 152.3 33.2l182.8 187.1c19.1 44.3 29.8 93.2 29.8 144.5 0 150.7-91.2 279.9-221.4 335.7zM764.3 433c0 169.5-137.4 306.9-306.9 306.9s-307-137.4-307-306.9c0-44.4 9.5-86.6 26.4-124.8L326 155.5c39.8-18.9 84.3-29.4 131.3-29.4 169.5 0 307 137.4 307 306.9z m-574 19.9c0 137.5 111.5 249 249 249s249-111.5 249-249-111.5-249-249-249-249 111.5-249 249zM688.3 452.9c0 137.5-111.5 249-249 249s-249-111.5-249-249 111.5-249 249-249 249 111.5 249 249z m-267-171.2c-105.5 0-191.1 85.5-191.1 191.1s85.5 191.1 191.1 191.1 191.1-85.5 191.1-191.1-85.6-191.1-191.1-191.1zM421.3 663.8c-105.5 0-191.1-85.5-191.1-191.1s85.5-191.1 191.1-191.1 191.1 85.5 191.1 191.1-85.6 191.1-191.1 191.1z m-18-304.3c-73.5 0-133.1 59.6-133.1 133.1s59.6 133.1 133.1 133.1 133.1-59.6 133.1-133.1-59.6-133.1-133.1-133.1zM403.3 492.6m-133.1 0a133.1 133.1 0 1 1 266.2 0 133.1 133.1 0 1 1-266.2 0ZM663.9 730.7c14.7 0 29-2.9 42.6-8.7s25.8-14.1 36.3-24.8l207.9-212.8c12.5-12.8 12.5-33.7 0-46.5L546.5 24.2c-9-9.2-20.9-14.3-33.5-14.3-12.6 0-24.5 5.1-33.5 14.3L75.4 437.9c-12.5 12.8-12.5 33.7 0 46.5l207.9 212.8c10.4 10.7 22.6 19 36.3 24.8 13.6 5.8 27.9 8.7 42.6 8.7h301.7m0 18H362.1c-34.4 0-67.4-14-91.8-38.9L62.5 497c-19.3-19.8-19.3-51.9 0-71.7l404.1-413.7c12.8-13.1 29.6-19.7 46.4-19.7s33.6 6.6 46.4 19.7l404.1 413.7c19.3 19.8 19.3 51.9 0 71.7L755.6 709.8c-24.3 24.9-57.3 38.9-91.7 38.9zM585.5 596.6h-145c-16.5 0-32.4-6.7-44.1-18.6l-99.9-101.6c-9.3-9.5-9.3-24.8 0-34.2l194.2-197.6a31.21 31.21 0 0 1 44.6 0l194.2 197.6c9.3 9.5 9.3 24.8 0 34.2L629.6 578c-11.7 11.9-27.6 18.6-44.1 18.6zM222 549.2c-4.6 0-9.2 1.7-12.7 5.2-7.1 7-7.1 18.4-0.1 25.5l87.4 88.1c7 7.1 18.4 7.1 25.5 0.1s7.1-18.4 0.1-25.5l-87.4-88.1c-3.5-3.5-8.2-5.3-12.8-5.3zM172.4 499.2c-4.6 0-9.2 1.7-12.7 5.2-7.1 7-7.1 18.4-0.1 25.5l7.4 7.5c7 7.1 18.4 7.1 25.5 0.1s7.1-18.4 0.1-25.5l-7.4-7.5c-3.6-3.6-8.2-5.3-12.8-5.3z"  horiz-adv-x="1024" />

    
    <glyph glyph-name="xinxi2" unicode="&#58910;" d="M287 337h382v-56H287zM287 487h450v-56H287zM511.3-92.2c-86.5 0-171.1 23.4-244.8 67.7-1.9 0.2-7.9 0.3-21.8-3-13.1-3.1-28.9-8.2-44.1-13.2-20.2-6.6-41.2-13.3-59.4-16.8-18.1-3.4-44.2-6-61.5 11.5-25.4 25.6-11 69.9 5.6 121.1 5 15.3 10.1 31.1 13.3 44.2 3.4 14.1 3.3 20 3.1 21.9-43.4 73.2-66.3 157-66.3 242.4 0 64.2 12.6 126.6 37.4 185.3 24 56.7 58.3 107.6 102 151.3s94.6 78 151.3 102c58.7 24.8 121 37.4 185.3 37.4S638 847 696.7 822.2c56.7-24 107.6-58.3 151.3-102s78-94.6 102-151.3c24.8-58.7 37.4-121 37.4-185.3S974.8 257 950 198.3c-24-56.7-58.3-107.6-102-151.3s-94.6-78-151.3-102c-58.8-24.6-121.1-37.2-185.4-37.2zM264.6 31.5c11.1 0 21-2.1 29.4-7.2 65.3-39.6 140.4-60.5 217.2-60.5 56.7 0 111.7 11.1 163.5 33 50 21.2 94.9 51.4 133.5 90s68.9 83.5 90 133.5c21.9 51.8 33 106.8 33 163.5s-11.1 111.7-33 163.5c-21.2 50-51.4 94.9-90 133.5s-83.5 68.9-133.5 90c-51.8 21.9-106.8 33-163.5 33s-111.7-11.1-163.5-33c-50-21.2-94.9-51.4-133.5-90s-68.9-83.5-90-133.5c-21.9-51.8-33-106.8-33-163.5 0-75.9 20.5-150.3 59.2-215.1 15.6-26 2.8-65.3-12-110.8-5.1-15.6-10.4-31.8-13.6-45.3-1.8-7.5-2.6-12.7-2.9-16.3 3.6 0.3 8.8 1.1 16.2 2.9 13.4 3.2 29.6 8.4 45.1 13.4 30.8 9.9 58.6 18.9 81.4 18.9z"  horiz-adv-x="1024" />

    
    <glyph glyph-name="tubiaozhizuomoban" unicode="&#58891;" d="M924 122.3H422.1L195.3 751.9H100v42h125.1l226.8-629.6H924zM747.3 198.5H522.5v42h195.2L857 629.7H373.8v42h542.8zM719.7 329.7H461.2l-112.7 342 39.7-0.1 103-299.9h228.5zM360.8-25.9c-37.7 0-68.4 30.7-68.4 68.4s30.7 68.4 68.4 68.4 68.4-30.7 68.4-68.4-30.7-68.4-68.4-68.4z m0 94.8c-14.6 0-26.4-11.8-26.4-26.4 0-14.6 11.8-26.4 26.4-26.4s26.4 11.8 26.4 26.4c0 14.6-11.9 26.4-26.4 26.4zM757.4-25.9c-37.7 0-68.4 30.7-68.4 68.4s30.7 68.4 68.4 68.4 68.4-30.7 68.4-68.4-30.7-68.4-68.4-68.4z m0 94.8c-14.6 0-26.4-11.8-26.4-26.4 0-14.6 11.8-26.4 26.4-26.4s26.4 11.8 26.4 26.4c0 14.6-11.9 26.4-26.4 26.4z"  horiz-adv-x="1024" />

    
    <glyph glyph-name="fanhui5" unicode="&#58936;" d="M967.111111 440.888889v-113.777778H170.666667V440.888889zM477.866667-59.733333L34.133333 378.311111l443.733334 443.733333 79.644444-79.644444-364.088889-364.088889 364.088889-358.4z"  horiz-adv-x="1024" />

    


  </font>
</defs>
</svg>
